<?xml version="1.0" encoding="utf-8"?>
<!-- Generator: Adobe Illustrator 27.5.0, SVG Export Plug-In . SVG Version: 6.00 Build 0)  -->
<svg version="1.1" id="artwork" xmlns="http://www.w3.org/2000/svg" xmlns:xlink="http://www.w3.org/1999/xlink" x="0px" y="0px"
	 viewBox="0 0 7000 2400" style="enable-background:new 0 0 7000 2400;" xml:space="preserve">
<style type="text/css">
	.st0{fill:#FFFFFF;}
	.st1{fill:#3F3F63;}
</style>
<rect id="bd" class="st0" width="7000" height="2400"/>
<g>
	<g>
		<path class="st1" d="M6094.2,1396c-4,0-8-0.5-12-1.5c-32.6-8.3-46.1-47.8-39.9-79.5c4.1-20.7,14-39.2,23.7-57.2
			c4.2-7.9,8.6-16.1,12.4-24.2c6.7-14.5,20.3-50.9,2.4-76.7c-6.8-9.8-18.3-16.4-31.7-18.1c-13.3-1.7-26.1,1.8-35.2,9.6
			c-15.7,13.5-20.7,36.2-23.5,56.6c-0.4,2.6-0.7,5.2-1.1,7.8c-2.7,20.5-5.5,41.8-17.1,59.9c-8.2,12.8-22.3,22.7-36.8,25.8
			c-11.4,2.4-22,0.6-30.9-5.2c-14.8-9.7-19.6-26.4-24.2-42.6c-4-13.9-7.7-26.9-17.4-34.3c-11.6-8.9-29.3-6.1-40.7,1.3
			c-14.1,9.1-23.3,24.7-29.8,37.3c-3.8,7.4-7.3,15.2-10.8,22.7c-6.1,13.2-12.3,26.9-20.3,39.7c-10.6,17-28.9,38.9-55.7,46.6
			c-23.5,6.8-55.4-1-68-25.6c-10.6-20.8-4.7-44,1-66.6c5.7-22.4,11-43.5-1.3-58.3c-11.7-14-34.1-13.8-50-7.6
			c-13.3,5.2-24.8,13.7-37,22.8c-4.6,3.4-9.4,6.9-14.2,10.2c-39.8,27.3-71.8,41.8-106.9,48.3c-33.3,6.2-68.5,5.2-118.5,2.9
			c-3.9-0.2-6.9-3.4-6.7-7.3s3.5-6.9,7.3-6.7c97.1,4.4,139.6,4.1,216.8-48.8c4.6-3.2,9.3-6.6,13.8-9.9c12.4-9.2,25.3-18.7,40.3-24.6
			c21.1-8.2,49.6-7.8,65.8,11.7c16.9,20.3,10.4,45.9,4.1,70.7c-5.3,20.9-10.3,40.7-2.1,56.7c9.3,18.2,33.6,23.7,51.7,18.5
			c22.5-6.5,38.3-25.6,47.7-40.5c7.5-12,13.6-25.3,19.5-38.1c3.5-7.6,7.1-15.5,11-23.2c7.3-14.2,17.7-31.8,34.7-42.7
			c18.4-11.8,41.8-12.1,56.8-0.6c13.4,10.2,17.9,26.2,22.3,41.6c4.1,14.3,8,27.8,18.5,34.7c7.1,4.7,15,4.3,20.3,3.2
			c10.9-2.3,21.6-9.9,27.9-19.7c9.9-15.5,12.5-35.1,15-54.2c0.4-2.6,0.7-5.3,1.1-7.9c3.2-23,9.1-48.7,28.2-65.2
			c12-10.4,28.8-15.1,46.1-12.9c17.2,2.2,32.3,10.9,41.4,24c15.5,22.3,15.1,55.4-1.2,90.6c-3.9,8.5-8.4,16.9-12.8,25
			c-9.6,17.8-18.6,34.6-22.3,53.2c-5,25.6,5.7,57.2,29.6,63.3c18.2,4.6,37.1-6.7,48.7-18.9l0.4-0.4c43.8-45.7,81.6-85.2,147-99.2
			c67-14.3,136-13.1,202.7-12c9.5,0.2,19.4,0.3,29,0.5c58.5,0.7,111.7,3.2,162.5,7.4c3.9,0.3,6.7,3.7,6.4,7.6
			c-0.3,3.9-3.7,6.7-7.6,6.4c-50.5-4.2-103.3-6.6-161.5-7.3c-9.7-0.1-19.6-0.3-29.1-0.5c-65.9-1.2-134-2.3-199.5,11.7
			c-61.2,13.1-97.7,51.1-139.8,95.2l-0.4,0.4C6132.6,1384.3,6114,1396,6094.2,1396z"/>
	</g>
	<g>
		<path class="st1" d="M3563.2,1474.5c-2.5,0-5.1-0.1-7.6-0.2c-33.2-1.6-66.8-16.3-92.1-40.3c-26.6-25.2-40.9-57.1-40.3-89.8
			c0.3-17.7,4.9-35.2,13.5-51.6c-80.5-2.1-149.9,0.5-244.8,6.2c-3.9,0.2-7.2-2.7-7.4-6.6c-0.2-3.9,2.7-7.2,6.6-7.4
			c98.4-5.8,169.5-8.5,253.8-6c2.3-3.4,4.9-6.8,7.6-10.1c17.5-21.3,41.4-37.8,67.4-46.6c23.4-7.9,48.9-10.6,75.4-8.2
			c8-26.2,29.3-50.3,58.6-52.4c17.1-1.2,34.4,6.1,47.5,20.2c14.6,15.8,21.6,37.1,18.6,56.9c-1,7-3.2,13.8-6.3,20.3
			c1,0.8,2,1.7,2.9,2.5c15.9-10.5,33.8-18,52.4-21.7c4.8-11.9,12-21.8,21.5-29.8c15.8-13.2,37-18.6,59.7-15.2
			c27.4,4.1,53.5,20.8,68.1,43.4c4.4,6.8,7.9,13.8,10.7,21c8,0.2,15.6,2.3,22.3,6c13.3,7.5,21.6,19.8,29.7,31.6
			c3.5,5.1,6.8,10,10.5,14.5c1.2,1.5,2.5,3,3.7,4.5c14.1-4.6,30.7-3.7,41.8,7.3c9.3,9.2,11.6,22.2,9.1,34.1
			c11,3.4,24.1,4.4,41.5,3.5c26.2-1.4,36.3-14.7,50.1-33.2c4.6-6.1,9.3-12.4,15-18.7c33.5-37.1,91.8-30.2,143.2-24
			c18.2,2.2,35.5,4.2,50,4.1c33.1-0.3,59.3-1.6,84.5-4.8c-0.9-1.2-1.8-2.3-2.6-3.5c-13.8-19.6-19.3-41.9-15.3-62.8
			c4.2-22.5,18.3-41.8,40.6-55.9c19.7-12.4,44-19.6,68.4-20.2c22.9-0.5,42.3,3.8,57.4,12.9c19.2,11.5,31.4,31.7,31.2,51.5
			c-0.2,18.1-9.3,33.9-26.9,47.2c-16.4,12.3-37,19.7-51.3,23.6c-27.2,7.5-49.8,13-71.5,16.9c7.8,5.7,16.2,10.3,24.8,13.2
			c32,10.9,71.2,7.7,116.6-9.4c16.6-6.3,33.2-13.9,49.2-21.2c11.1-5.1,22.4-10.3,33.9-15.1c14.8-33.2,44.7-60.5,81-72.3
			c40.6-13.2,88.3-7.4,127.7,15.5c17.8,10.4,33.6,23.8,48.7,37.2c8.9-24.8,24.5-45.8,44.9-59.7c16.4-11.2,36.6-17.3,57-17.3
			c0.2,0,0.3,0,0.5,0c21.3,0.1,41.3,7.1,56.3,19.6c16.2,13.5,26.3,35.1,27.2,57.6c0.8,20.9-6.1,39.7-19.6,52.9
			c-15.2,14.9-36.3,22-61.1,20.4c-21.3-1.4-43.7-9-63.1-21.6c-12.2-7.9-23.5-17.1-34.4-26.5c-1.1,5.8-1.8,11.8-2.1,17.8
			c-1.6,34.5,13.9,74.6,46.8,84.6c27.8,8.5,59.7,1.2,100.3-23c15-8.9,28.1-17.2,39.7-24.4c60.2-37.8,87.7-55.1,178.1-45.3
			c3.8,0.4,6.6,3.9,6.2,7.7c-0.4,3.8-3.9,6.6-7.7,6.2c-85.5-9.3-110,6.1-169.1,43.2c-11.7,7.3-24.9,15.6-40,24.6
			c-44.2,26.3-79.7,34-111.5,24.3c-18.7-5.7-34-19.3-44.3-39.3c-9-17.5-13.4-38.6-12.4-59.4c0.5-9.5,1.8-18.9,4-27.8c0,0,0,0,0,0
			c-16.1-14.3-32.7-29-51.3-39.8c-36-21-79.4-26.3-116.3-14.3c-27.4,8.9-50.8,27.7-65.3,51.1c3.9-1.4,7.8-2.8,11.7-4
			c23.8-7.7,47.7-11,68.9-9.4c25.9,1.9,47,10.8,62.8,26.3c15.6,15.3,24.4,37.9,24.1,61.9c-0.3,23.7-9.3,46.3-24.8,62
			c-15.4,15.6-36.9,25.3-60.5,27.2c-23.3,1.8-46.2-4-64.6-16.4c-17.9-12.1-32.2-30.8-40.2-52.6c-7.8-21.4-9.4-44.9-4.4-66.3
			c0.2-0.9,0.4-1.8,0.7-2.7c-7.3,3.2-14.6,6.6-21.7,9.9c-16.2,7.5-33,15.2-50.1,21.6c-48.5,18.3-91,21.6-126.1,9.6
			c-14.1-4.8-27.5-13-38.7-23.5c-28.8,4.1-57.8,5.8-95.8,6.2c-15.4,0.1-33.1-1.9-51.8-4.2c-48.1-5.7-102.6-12.2-131.2,19.5
			c-5.3,5.9-9.8,11.9-14.2,17.7c-14.3,19.1-27.8,37.1-60.6,38.8c-19.5,1-34.4-0.3-47-4.2c-1.4,2.5-3,4.9-4.7,7
			c-10.1,12.1-26.1,20-47.5,23.7c-5.5,0.9-11,1.5-16.5,1.8c1.6,8.2,2.3,16.5,2,24.9c-0.5,12.7-3.6,22-9.7,28.4
			c-6.9,7.3-17.1,9.9-27.8,7.3c-14.1-3.5-26.6-15.3-30.4-28.8c-1-3.4-1.6-6.9-1.9-10.3c-8.7,6.7-17.7,12.8-27,18.4
			c-31.9,19.1-79.4,31.1-107.9,2.4c-2.3-2.3-4.3-4.8-6.1-7.4c-24.2,0.6-49.9-5.8-69.6-19.9c-13,12.4-27.3,23.2-42.5,31.9
			C3623.3,1466,3592.9,1474.5,3563.2,1474.5z M3452.7,1293.1c-9.5,16-15.1,33.6-15.4,51.4c-1.1,58.5,54.5,112.6,119.1,115.8
			c44.6,2.2,90.5-16.9,127.1-51.6c-7.1-7.1-12.8-15.5-16.8-25.3c-3.8-9.4-5.5-19.1-5.5-28.7c-13-7.7-25-18.8-34.5-31.1
			c-3.7-4.8-7.1-9.5-10.2-14.2c-2.9-0.1-5.8-0.2-8.7-0.4c10.3,9.3,17.5,20.7,20.4,33.1c6.3,27.2-10.7,57.8-37.3,66.7
			c-12.9,4.3-27.3,3.5-40.7-2.2c-13.3-5.8-23.9-15.7-29.6-28c-11.9-25.5-2.1-58.4,21.7-73.4c3.6-2.2,7.2-4,11-5.5
			c-11-1.9-22.7-2.8-35.2-3.5C3495,1294.8,3473.4,1293.8,3452.7,1293.1z M3918.9,1412.7c-0.6,6.2-0.4,12.3,1.3,18.1
			c2.5,8.7,11,16.7,20.3,19c4.1,1,9.9,1.3,14.3-3.3c3.6-3.8,5.5-10.1,5.9-19.2c0.3-8.2-0.6-16.4-2.4-24.4
			c-8.6-0.5-16.8-1.8-24.7-3.9C3928.7,1403.7,3923.9,1408.3,3918.9,1412.7z M3780.6,1436.1c23,21.9,62.6,10.9,89.9-5.4
			c12.3-7.3,24.1-15.8,35.1-25.1c0.9-5.5,2.3-10.9,3.8-16.3c-3.1-1.8-6.1-3.7-9-5.8c-0.7-0.5-1.5-1.1-2.2-1.6
			c-9.7,17.2-26,31.2-46.7,33c-6.1,0.5-11.9,0-17.5-1.4c-1.6,1.2-3.2,2.4-4.9,3.5c-13.4,9.1-29.6,15.6-46.7,18.8
			C3781.9,1435.9,3781.3,1436,3780.6,1436.1z M3704,1407.7c15.1,10.2,34.2,15.4,52.9,16c-3-9.2-3.8-19.6-2.2-30.6
			c2.4-16.2,9.7-32.2,20.4-44.8c-0.9-2.3-1.7-4.5-2.4-6.8c-1.8-5.3-3.7-11.5-5.3-18.3c-0.8,0.8-1.7,1.6-2.5,2.4
			c-10.9,11-19.2,24.1-27.9,37.9c-3.8,6-7.7,12.2-11.9,18.2C3718.6,1390.8,3711.6,1399.5,3704,1407.7z M3781.4,1362.8
			c-12.5,18-17.8,42-9.8,60.3c2.9-0.3,5.7-0.7,8.4-1.2c12.5-2.3,26.4-7.2,38.8-15C3803.1,1397.6,3790.5,1381.1,3781.4,1362.8z
			 M4695.4,1271.7c-1.6,4.3-3,8.7-4.1,13.2c-9.1,39,7.2,82.8,38.8,104.1c32.7,22.1,80.8,18,107.3-9c27.4-28,27.8-77.6,0.8-104.1
			c-24.8-24.3-68.8-29.4-117.6-13.6C4712.2,1265.1,4703.7,1268.3,4695.4,1271.7z M3860.3,1324.1c7.7,17.4,8.2,37.5,1.3,54.4
			c-3.3,8-8.1,15.6-14.1,22.4c1,0,2-0.1,3-0.1c16.7-1.4,30-14.2,37.4-29.1c-12-13.5-19.2-30.6-20.2-47.5
			C3865.1,1324.2,3862.7,1324.1,3860.3,1324.1z M3675.4,1361.5c0.6,5.6,2,11.2,4.2,16.6c3.2,8,7.9,14.9,13.6,20.7
			c7.2-7.8,14-16.2,20.3-25.2c4-5.7,7.8-11.8,11.5-17.7c0.7-1.1,1.4-2.1,2-3.2c-1.8,1.7-3.8,3.4-6,4.8
			C3706.9,1366.9,3690.9,1367.1,3675.4,1361.5z M3791.4,1351.2c9.1,20.4,22.6,39,39.7,46.4c7.3-6.7,13.5-14.8,17.4-24.4
			c5.7-13.8,4.9-31.2-2-45.3c-0.4-0.9-0.9-1.7-1.3-2.5C3825.2,1328.6,3806,1337.4,3791.4,1351.2z M3581.9,1308.4
			c-11.7,0.5-22.7,2.5-32.2,8.5c-17.8,11.2-25.3,36.7-16.5,55.7c8.9,19.1,33.2,29.6,53.1,22.9c19.7-6.6,32.8-30.1,28.1-50.3
			C3611,1330.2,3599,1316.7,3581.9,1308.4z M3959.7,1368.3c3.7,6.6,6.8,13.5,9.2,20.7c5.8-0.2,11.8-0.7,17.8-1.8
			c18.1-3,31.2-9.4,39.1-18.8c0.9-1.1,1.7-2.2,2.4-3.4c-13-6.8-24.1-17.4-36.9-32.2c-0.4,0.3-0.9,0.5-1.3,0.8
			c-10.4,7-17.9,17.5-25.9,28.5C3962.6,1364.2,3961.2,1366.3,3959.7,1368.3z M3944.5,1387.1c3,0.6,6,1,9.2,1.3
			c-1.1-2.7-2.2-5.3-3.5-7.9C3948.3,1382.8,3946.4,1385,3944.5,1387.1z M3926.3,1381.9c1,0.4,2,0.8,3,1.1c4.6-5,9.1-10.1,13.3-15.4
			c-2.8-4.1-5.9-8.1-9.2-11.7c-1.6,7.3-3.3,14-5.1,19.7C3927.7,1377.6,3927,1379.7,3926.3,1381.9z M3904.3,1368.5
			c1.4,1.3,2.9,2.5,4.5,3.6c1.6,1.2,3.2,2.3,4.9,3.3c0.4-1.3,0.8-2.7,1.2-4c2.3-7.5,4.6-16.7,6.4-27c-4.1-3.3-8.4-6.2-13-8.7
			c0.5,7.4,0.2,14.9-1.2,22.2C3906.4,1361.5,3905.5,1365,3904.3,1368.5z M3881.8,1326.1c1.2,10.4,5.1,20.8,11.4,29.9
			c0-0.2,0.1-0.4,0.1-0.6c1.6-8.6,1.6-17.5,0.2-26.2C3889.7,1327.9,3885.8,1326.9,3881.8,1326.1z M3936.4,1338.8
			c5.6,5.1,10.7,10.8,15.2,16.9c0.4-0.6,0.8-1.1,1.2-1.7c8.4-11.6,17-23.6,29.4-31.9c0,0,0,0,0,0c-0.5-0.6-1-1.2-1.5-1.9
			c-4.1-5-7.7-10.3-11.2-15.5c-7.5-11-14.6-21.5-25-27.3c-3.4-1.9-7-3.2-10.8-3.8C3939.4,1296,3939.1,1319,3936.4,1338.8z
			 M4005.3,1327.6c9.6,10.7,18,18.5,27.4,23.9c0.7-6.8-0.9-13.7-5.6-18.4C4021.6,1327.6,4013.4,1326.2,4005.3,1327.6z
			 M3675.5,1346.3c12.8,5.8,26.2,7.2,37.8-0.5c16.8-11.2,18.4-37.3,9.2-54.7c-2.1-3.9-4.5-7.6-7.5-11.2
			C3694.8,1296.3,3678.5,1320.9,3675.5,1346.3z M3633.5,1309.4c1.4,1.9,2.8,3.8,4.2,5.7c6.3,8.2,15.1,16.9,24.9,23.8
			c3-16.1,10.4-31.7,20.3-45.2c-12.4,8.2-26.7,13.5-41.3,15.1C3638.9,1309,3636.2,1309.2,3633.5,1309.4z M3779.6,1313.6
			c2.1,10,4.6,18.3,6.3,23.4c0,0.1,0.1,0.2,0.1,0.4c14.1-12.1,31.2-20.3,49.2-24.4c-4.2-3.6-9-6.2-14.2-7.6
			C3806.6,1301.3,3791.8,1305.9,3779.6,1313.6z M3726.4,1271.8c3.3,4.1,6.1,8.3,8.4,12.8c7.9,14.9,9.7,34.8,3.3,51.3
			c5-7.1,10.4-14,16.7-20.3c2.8-2.8,5.9-5.6,9.2-8.2c-1.8-11.2-2.8-23.4-2-35.7c0.4-5.8,1.1-11.2,2.2-16.5
			C3751.2,1258.7,3738.3,1264.3,3726.4,1271.8z M3905.5,1318.9c0.2,0.1,0.3,0.1,0.5,0.2c6.1,2.7,12,5.9,17.5,9.6
			c1.6-17.3,1.1-36.3-4.2-54.7c-2.3,0.5-4.7,1.2-7.1,2.1c-7.5,2.8-14.2,7.5-19.4,13.2C3898.5,1298.5,3902.9,1308.5,3905.5,1318.9z
			 M3882.1,1311.8c2.4,0.4,4.8,1,7.2,1.6c-1.4-3.7-3-7.3-4.8-10.8c-0.1,0.3-0.2,0.6-0.3,0.9
			C3883.2,1306.2,3882.5,1309,3882.1,1311.8z M3810.1,1289.8c4.8,0,9.7,0.6,14.7,2c10.7,3,20.1,9.4,27.2,18.6
			c5.4-0.4,10.7-0.5,16.1-0.2c0.6-3.8,1.5-7.6,2.8-11.3c1.2-3.5,2.8-6.8,4.7-10c-10-13.1-23.5-23.8-39.3-30.2
			c-17.4-7.1-37.1-9.1-56.8-6.4c-4.4,15.2-4.3,31.8-2.5,46.6C3787.1,1293.4,3798.5,1289.8,3810.1,1289.8z M4953.4,1251.5
			c12.1,10.7,24.7,21.3,38.2,30c32.9,21.3,80.2,29.1,106.8,3c10.6-10.4,16.1-25.5,15.4-42.4c-0.7-18.7-9.1-36.4-22.2-47.4
			c-25.3-21.2-67-21.8-96.9-1.5C4975.7,1206.2,4961.1,1227.2,4953.4,1251.5z M3624.3,1295.5c5.4,0,10.6-0.1,15.7-0.7
			c22.8-2.6,43.3-15.1,55.4-32.2c-6.7-4.5-14.4-8.8-23.3-13c-22-10.3-44.1-17.1-65.8-20.3c-0.2,1.6-0.3,3.1-0.4,4.7
			C3605.1,1253.3,3611.2,1273.9,3624.3,1295.5z M3587.9,1294.3c6.4,0,12.8,0.3,19.1,0.6c0.3,0,0.5,0,0.8,0
			c-11.4-21.3-16.8-41.9-15.9-61.5c0.1-1.9,0.2-3.8,0.5-5.7c-23.9-1.9-46.9,0.6-68,7.7c-25.1,8.5-46.8,24.3-62.3,44
			c18.1,0.7,36.9,1.6,56.8,2.8c23.2,1.4,44.1,3.2,63.7,11.2c0.8,0.3,1.5,0.6,2.3,1C3585.9,1294.3,3586.9,1294.3,3587.9,1294.3z
			 M4525,1155.5c-1.1,0-2.2,0-3.4,0c-40.6,0.9-87.8,23.9-95.5,64.7c-4.3,22.8,5.2,44.8,20.6,61.5c24.8-3.9,49.9-9.8,81.2-18.5
			c20.3-5.6,67.5-22.5,67.9-57.5c0.2-14.9-9.4-30.3-24.4-39.3C4559.4,1159.1,4543.8,1155.5,4525,1155.5z M3796.3,1237
			c15.9,0,31.3,2.9,45.4,8.6c16.9,6.9,31.6,18.2,42.8,32c6.3-6.3,14.1-11.4,22.7-14.7c2.4-0.9,4.9-1.7,7.3-2.2
			c-2.2-5.1-4.8-10.1-8-14.9c-12.5-19.3-34.8-33.5-58.4-37.1c-18.7-2.8-36,1.5-48.6,12.1c-5.8,4.9-10.4,10.6-13.8,16.7
			C3789.2,1237.1,3792.8,1237,3796.3,1237z M3609.5,1215.7c22.6,3.5,45.7,10.6,68.5,21.3c9.1,4.3,17.2,8.7,24.3,13.4
			c1.9-4.5,3.2-9.1,3.9-13.9c2.3-15.4-3.5-32.7-15.1-45.3c-10.1-10.9-23.3-16.7-36.2-15.8C3633.4,1177,3616.5,1195.2,3609.5,1215.7z
			"/>
	</g>
	<g>
		<g>
			<path class="st1" d="M1192.3,1677.4c-6.2,0-12.4-0.2-18.5-0.7c-44.1-3.3-84.2-18.2-116-43.2c-32.4-25.5-56-64.6-64.7-107.1
				c-0.4-2.1-0.8-4.1-1.2-6.2c-4.2-1.3-8.3-2.7-12.4-4.4c-13.3,11.4-28.3,20-45.8,23.3c-21.7,4.1-44.8-1.4-64.8-15.7
				c-23.2-16.5-39.5-42.5-43.5-69.6c-5.3-35.8,7-74.8,32.8-107.3c-4.2-12.6-7.5-25.8-10.1-39.5c-1.2-6.3-2.2-12.6-3-19
				c-110.7-26.6-257.1-45.1-436.4-19c-3.8,0.6-7.4-2.1-7.9-5.9c-0.6-3.8,2.1-7.4,5.9-7.9c124.3-18.1,247.3-17,365.5,3.3
				c25.2,4.3,49,9.3,71.3,14.6c-2.3-27.2-1.4-55.2,2.6-83.6c14.5-103,68.6-200.4,148.4-267.2c18-15.1,37-28.4,57-40
				c11.8-16.2,26.2-30.5,42.1-41.2c31.2-21.2,65-26.8,95.1-15.7c5.7,2.1,11,4.7,15.9,7.6c12.8-1.1,25.5-1.4,38.2-1
				c25.5,0.8,51,4.9,75.7,12c51-33.5,123.6-41.8,165.1,1.9c3.9,4.1,7.4,8.5,10.5,13.3c18.7-6.7,37.9-10.2,57.2-10.3
				c28.8-0.2,57.3,7.5,83.8,22.2c13.4-3.9,27.4-4,39.9,0.4c16.1,5.6,28.9,17.6,36.8,34.6c7.3,15.7,10.1,34.6,8.4,53.4
				c5.3,10.1,9.7,20.6,13.2,31.3c12.2,37,15.4,77.4,9.6,120.1c-4,28.9-12.3,58.7-24.3,87.4c28.9,2.3,67.2,10.4,113.9,20.4
				c54.5,11.6,116.3,24.8,184.1,33.2c118.4,14.6,215.3,24,302.3,28.9c0.4-36.3,15.9-72.3,44-98c6.2-5.7,13-10.8,20.3-15.3
				c-4.8-22.6,0.5-44.2,15-60.5c17.7-19.8,46.8-28.6,89-27c51.1,2,102.8,20.6,140.6,49c10.4-3.1,21.2-4.6,32.1-4.3
				c17.3,0.5,34.8,6.2,49.5,16.1c16.5,0.1,33,4.6,45,11.7c8.5,5.1,15.7,11.5,21.3,19c-0.3-3.3-0.5-6.5-0.4-9.8
				c0.2-13.9,4.1-25.5,11.5-34.6c9.3-11.3,24.7-18.5,40.1-18.7c9.7-0.1,19.7,2.3,29.8,7.2c15.2-1.8,30.6-0.1,44.2,5
				c33.3,12.6,48.9,43.7,56.2,68.5c0.6-0.2,1.2-0.4,1.9-0.6c19-5.5,40.4-5.4,60.2,0.3c20.4,5.8,37.6,17.3,48.6,32.3
				c11.5,15.7,15.9,36,12.1,55.8c-0.6,3.3-1.5,6.4-2.5,9.5c27,1.2,45.2,0.5,70.6-0.5c12.2-0.5,26.1-1,43.5-1.5
				c3.9-0.1,7.1,3,7.2,6.8c0.1,3.9-3,7.1-6.8,7.2c-17.3,0.4-31.1,1-43.3,1.5c-27.5,1.1-46.7,1.9-77.4,0.3
				c-5.5,9.3-13.1,17.2-22.5,23.1c-6.7,4.2-13.7,7.2-21,9.3c-0.4,4.1-1,8.2-1.7,12.1c-6.8,36.4-25.3,60.2-50.8,65.1
				c-22.3,4.3-42.8-6.5-57.9-21.3c-14.9,14.8-34.9,25.5-56.7,29.1c2.8,9.7,4.9,19.7,5.6,29.9c1.5,20.3-2.9,36.5-13.1,48.2
				c-11.8,13.5-35.6,21.3-53.4,10.2c-7.6-4.7-12.6-12-14.7-21c-2.6-11.4,0-24.5,6.8-35.2c2.5-3.8,5.3-7.4,8.3-10.7
				c-22.3,0.4-43-7-58.9-17.9c-6.2,6.9-13.7,13.3-22,19c1,13.5-4.5,27-15.5,38.1c-14.6,14.5-36,22.1-55.9,19.8
				c-15.2-1.8-29.3-8.4-40.7-18.3c-1.5,0.2-3.1,0.4-4.6,0.6c-36.5,4.5-74.2,2.5-109-5.8c-19.1-4.6-35.8-12.8-48.3-23.1
				c-21.9-1.8-38.9-10.4-49.5-24.9c-6.1-8.4-9.4-18.5-9.8-28.9c-3.5-2.3-7-4.8-10.3-7.3c-22.4-17.2-39.1-39-48.2-63
				c-4-10.6-6.5-21.6-7.6-32.7c-87.7-4.9-185.3-14.3-304.6-29.1c-68.5-8.5-130.6-21.7-185.4-33.4c-49.1-10.5-88.8-18.9-117-20.4
				c-2.3,4.9-4.6,9.7-7.1,14.5c-0.8,1.6-1.6,3.1-2.5,4.7c12.4,36.1,16.8,75.1,12.9,113.5c-4.4,43.3-19.4,83.7-43.2,116.9
				c-41.4,57.5-109.9,91.7-177.4,91.7c-5.1,0-10.1-0.2-15.2-0.6c-3.8,1.9-7.6,3.7-11.3,5.5c-20.5,9.9-45.6,20.5-70.6,24.3
				c-0.1,0.1-0.2,0.2-0.3,0.4c-30.5,31.6-64.4,55.9-100.8,72C1264.1,1669.8,1228.2,1677.4,1192.3,1677.4z M1007.2,1524.2
				c7.7,37.7,28.1,73.8,59.3,98.4c58.2,45.8,148.6,53.8,225,19.8c33.3-14.8,61.7-35.3,85.7-58.2c-11.6-0.3-22.9-2.5-33.3-7.6
				c-37.9,16.3-77.2,23.7-105.8,27.1c-35.9,4.3-82.7,6.9-125.8-10.6c-20.4-8.3-39.2-21.9-52.9-38.2c-7.2-8.6-13-17.8-17.2-27.3
				C1030.6,1527.7,1018.8,1526.6,1007.2,1524.2z M1057.3,1526.6c12.8,25,36.9,44,60.3,53.5c31.3,12.7,67.9,15.7,118.8,9.7
				c25.3-3,59.4-9.3,93-22.4c-0.2-0.2-0.5-0.4-0.7-0.6c-1.9-1.6-3.7-3.3-5.4-5.1c-13.5,0.1-26.8-0.7-40-2.3
				c-13.7,6.5-27.5,11.6-41.3,15.3c-38.8,10.4-74.5,8.7-106.1-5.1c-22.5-9.8-42.5-26-58.4-46.6c-0.1,0-0.1,0-0.2,0
				C1070.8,1524.7,1064.1,1525.9,1057.3,1526.6z M1361.8,1568.1c9.5,2.3,19.6,2.5,29.9,1.3c5.8-6.2,11.4-12.6,16.6-19
				c-8.6,2.2-17.2,4.2-26,5.7C1375.7,1560.5,1368.8,1564.5,1361.8,1568.1z M1091.9,1518.6c13.9,16.8,30.8,30,49.7,38.2
				c34,14.8,74.6,13.8,116.1-1.5c-13.3-2.7-26.4-6.3-39.1-10.8c-30.3-10.6-58.8-27.2-82.5-47.9c-2.4,1-4.9,2-7.4,2.9
				C1117.1,1507.5,1104.7,1513.9,1091.9,1518.6z M1431.4,1543.6c-5.5,7.3-11.1,14.5-17,21.3c14.3-4,28.3-9.7,40.9-15.6
				c-2-0.4-3.9-0.9-5.9-1.4c-5.5-1.4-11-3-16.4-4.9C1432.5,1543.2,1431.9,1543.4,1431.4,1543.6z M1344.5,1560.9
				C1344.5,1560.9,1344.5,1561,1344.5,1560.9c0.1,0,0.2,0,0.3,0C1344.6,1560.9,1344.5,1560.9,1344.5,1560.9z M1323,1536.5
				c1.8,3.9,4,7.7,6.8,11.2c15.7-0.4,31.4-1.9,47-4.6c7.6-5,14.8-10.6,21.6-16.7c-11.5-7-22.4-15.4-32.4-24.8
				c-7,9.3-15.7,16.8-25.4,22c-0.4,0.3-0.9,0.7-1.3,1C1333.9,1528.8,1328.5,1532.7,1323,1536.5z M1305.9,1547.4
				c2.3,0.1,4.7,0.2,7,0.3c-0.6-1.1-1.2-2.3-1.8-3.4C1309.4,1545.3,1307.7,1546.4,1305.9,1547.4z M1150,1490
				c22.4,18.4,48.1,32.5,73.2,41.3c18.8,6.6,38.2,11.2,58,13.8c8.2-4.1,16.3-8.7,24.4-13.8c-20.5-1.2-41-12-55.9-30
				c-14.1-17.1-20.8-37.2-19-56.3c-6-1.4-11.9-2.9-17.8-4.6C1193.5,1461.7,1172.5,1478.3,1150,1490z M1533,1523.9
				c-8.4,5.5-17,10.5-25.7,15.2c59.2-3.7,117.8-35,154.2-85.6c40.5-56.3,52.3-134.8,32.2-205.5c-9.6,16-20.2,31.4-31.8,46.1
				c-4.1,14.1-8.9,28-14.5,41.5c7.5,30.5,4.8,64-7.5,94.9c-12.8,32-35.2,58.9-62.9,75.8C1563.5,1514.5,1548.6,1520.4,1533,1523.9z
				 M1454.6,1534.8c7.6,1.8,15.2,3,22.9,3.8c6.9-3.4,14-7,21-10.7c-6,0-12-0.2-18-0.8c-2.4-0.2-4.7-0.5-7-0.9
				C1467.3,1529.3,1461,1532.1,1454.6,1534.8z M1411.2,1533.7c-0.9,0.8-1.7,1.6-2.6,2.4c1.6-0.4,3.1-0.9,4.7-1.3
				C1412.6,1534.4,1411.9,1534,1411.2,1533.7z M863.9,1362.4c-19.8,27.9-29,60-24.6,89.5c3.5,23.4,17.6,45.9,37.8,60.2
				c16.9,12,36.1,16.8,54.1,13.3c12.6-2.4,23.8-8.1,34.1-16c-26.9-13.7-49.2-34.2-63.6-58.9c-8.3-14.2-14-30-16.9-46.5
				C876.6,1391,869.7,1377.1,863.9,1362.4z M1421.5,1523.2c1.8,0.9,3.7,1.7,5.6,2.5c2.4-3.5,4.8-6.9,7-10.3c-1.5-0.6-3-1.3-4.4-1.9
				C1427.1,1516.8,1424.3,1520.1,1421.5,1523.2z M1447.6,1520.3c-0.7,1.1-1.4,2.2-2.1,3.2c1.8-0.7,3.6-1.5,5.4-2.3
				C1449.8,1521,1448.7,1520.7,1447.6,1520.3z M1244.4,1448c-0.8,15,4.7,30.8,16,44.4c11.7,14.1,27.2,22.8,42.9,24.7
				c-2.4-19.6,1-41,8-61.1C1288.9,1455,1266.5,1452.4,1244.4,1448z M1326.1,1456.2c-6,15.7-9.3,31.7-9.5,46.4
				c-0.1,4.3,0.1,9.1,0.8,14.1c0.2,0,0.5-0.1,0.7-0.1c5.1-0.9,10.1-2.6,14.7-4.9c6.5-5.2,14.5-12,23-20.4
				c-3.7-4.1-7.3-8.3-10.7-12.7c-5.6-7.2-10.7-14.8-15.1-22.5C1328.8,1456.2,1327.4,1456.2,1326.1,1456.2z M1375.4,1491.7
				c10.1,9.5,21.2,17.8,33.3,24.8c2.9-3,5.7-6.2,8.3-9.5c-9.7-5.5-18.6-12-26.6-19.4c-2.1-1.9-4.1-3.8-6-5.8
				C1381.5,1485,1378.5,1488.4,1375.4,1491.7z M1496.3,1513.9c10.4,0.1,20.9-1,31-3.1c15.3-10.2,29.6-22,41.3-36.1
				c10.1-12.3,18.3-27.7,22.7-43.9c-19.9,24.8-42.8,47-68.1,65.4C1514.6,1502.5,1505.6,1508.4,1496.3,1513.9z M1004.9,1509.3
				c10.6,2.6,21.5,4,32.5,4.3c-0.5-1.7-0.9-3.5-1.3-5.2c-10.7-1.8-21.4-4.5-32-8.1C1004.2,1503.2,1004.5,1506.2,1004.9,1509.3z
				 M1050.9,1510.2c0.3,1,0.6,2,0.9,2.9c5.4-0.4,10.8-1.2,16.1-2.3C1062.2,1510.9,1056.6,1510.7,1050.9,1510.2z M1455.3,1508
				c5.3,1.5,10.6,2.7,16.1,3.7c15.1-7.7,29.7-16.7,43.6-26.8c30.8-22.5,57.8-50.5,80.1-82.4c-0.2-11.8-2.8-23.5-8.5-34.1
				c-27,20.9-56.5,38.5-87.5,52.3c-9,20.3-18.3,41.1-28.8,61C1465.5,1490.7,1460.5,1499.5,1455.3,1508z M1437.9,1501.8
				c1.3,0.5,2.5,1.1,3.8,1.6c6-9.8,11.4-19.3,16.1-28.3c8-15.2,15.4-30.9,22.4-46.7c-5.2,2-10.4,3.9-15.6,5.6
				c-4.2,18-9.6,35.9-18.1,52.7C1444,1492,1441.1,1497,1437.9,1501.8z M911.4,1439.2c0.8,1.5,1.6,2.9,2.4,4.3
				c14.3,24.6,36.8,43.9,63,55.9c2.4-2.4,4.8-4.8,7.2-7.4c-0.4-0.2-0.8-0.4-1.2-0.6C956,1479.1,931.5,1461,911.4,1439.2z
				 M2824.3,1435.7c-8.1,7-15.6,13.8-20.8,22c-4.8,7.5-6.7,16.8-5,24.5c1.2,5.4,4,9.5,8.4,12.2c11,6.9,27.6,1.5,35.5-7.5
				c7.7-8.8,10.9-21.6,9.7-38c-0.6-8.2-2.1-16.1-4.2-24C2840.7,1429.6,2832.8,1433.3,2824.3,1435.7z M1393.3,1470.7
				c2.1,2.2,4.3,4.4,6.6,6.5c7.7,7.1,16.3,13.3,25.4,18.4c3.2-4.8,6.2-9.9,8.9-15.2c6.7-13.2,11.3-27,15-41.4
				c-13.3,3.9-26.9,7.2-40.5,9.8C1404,1456.2,1398.8,1463.5,1393.3,1470.7z M1609,1407c-0.8,27.9-12.6,56.1-29.5,76.6
				c-3,3.7-6.2,7.2-9.5,10.6c45.3-27.6,71.7-82.9,67.1-135.5C1628.7,1375.5,1619.4,1391.6,1609,1407z M1048.1,1489.1
				c2.9,0.2,5.9,0.3,8.8,0.2c-2.6-5.5-5-11.1-7.1-16.9C1048.7,1477.8,1048.1,1483.4,1048.1,1489.1z M1057.7,1450.4
				c3.5,13.5,8.4,26.3,14.4,38c14.7-1.7,29.4-5.8,43.2-12.3c-0.4-0.5-0.8-0.9-1.2-1.4c-15-17.2-26.3-35.5-33.9-54.6
				C1071.2,1428.9,1063.3,1439.1,1057.7,1450.4z M1010.8,1481.4c7.5,2.8,15.3,4.8,23.3,6.1c0.2-13.6,3.4-26.6,8.8-38.6
				c-0.8-3.2-1.5-6.5-2.1-9.8l-17.3,24.7C1019.4,1469.8,1015.1,1475.6,1010.8,1481.4z M2626.5,1476.8c7,4.1,14.8,6.8,22.8,7.7
				c15.5,1.8,33-4.4,44.4-15.8c5.9-5.9,9.7-12.7,11-19.5C2680.8,1461.8,2654.1,1471.2,2626.5,1476.8z M1345.9,1455.9
				c5.1,8.1,10.9,15.9,17.2,23.1c0.4-0.9,0.8-1.9,1.2-2.9c1.8-4.4,3.2-8.8,4.1-13.3c-1.9-2.6-3.7-5.3-5.5-8
				C1357.3,1455.3,1351.6,1455.7,1345.9,1455.9z M936.6,1314c-0.6,5.5-1,10.9-1.3,16.4c-2.1,38,2.4,90.5,35.7,125.3
				c5.8,6.1,12.3,11.3,19.5,15.8c2.8-24.1,11-46.7,24.3-66.1c6.4-9.4,13.7-17.8,21.7-25.4c0.3-10.1,1.1-20.5,2.4-31.4
				c-2-0.6-3.9-1.3-5.9-1.9c-9.5-3.2-20-6.8-31.1-10.7C982.9,1329.4,961.2,1321.8,936.6,1314z M2469.7,1451.3
				c8.1,4.3,17.2,7.8,27,10.1c32.2,7.7,65.8,9.7,98.6,6.2c-7.9-10.6-13.2-23.1-14.7-36.5c-1.6-14.3-0.9-32.1,3.8-49.4
				c-18.1,23.2-42.5,43-71.1,56.8C2499.6,1445,2484.4,1449.4,2469.7,1451.3z M1091.4,1410.3c7.8,21.9,20.6,41.7,36.5,58.9
				c16.3-9.9,31-23,43.8-38.7c0.6-1.2,1.2-2.3,1.8-3.5c-21.7-8.6-41.8-19-59.9-30.8C1106,1400,1098.5,1404.8,1091.4,1410.3z
				 M2612.2,1355.4c-15.7,20.4-20.5,50.8-17.8,74.1c1.5,13.4,8,26.1,17.4,35.8c30.6-5,60.2-14.7,87.2-29.1c1.5-0.8,3-1.6,4.5-2.5
				c-6.1-19.3-27.8-33.3-48.9-46.9c-1.8-1.2-3.6-2.3-5.3-3.4C2635.6,1374.5,2623.2,1365.1,2612.2,1355.4z M1036.5,1400.2
				c-3.7,4.2-7.1,8.6-10.2,13.2c-10.4,15.2-17.1,32.6-20.3,50.9c2-2.8,4-5.6,6-8.4l25.8-36.9
				C1037.2,1412.8,1036.7,1406.6,1036.5,1400.2z M1183.7,1437.9c-4.6,8.5-9.9,16.7-15.9,24.5c10.5-7.7,20.6-16.5,30.2-26.4
				c-3.4-1.1-6.8-2.2-10.2-3.4C1186.5,1434.3,1185.2,1436.1,1183.7,1437.9z M898.2,1399.2c1.8,2.8,3.6,5.5,5.5,8.2
				c14.6,21,32.6,38.9,52.7,53c-32.6-38.2-37.1-91.8-35-130.8c0.4-6.7,0.9-13.3,1.6-19.9c0,0,0,0-0.1,0c-5,3-9.8,6.1-14.5,9.4
				C897.6,1343.9,894,1372.3,898.2,1399.2z M1383.4,1459.4c0.2,0.2,0.3,0.4,0.5,0.6c2-2.6,4-5.3,5.9-8.1c-1.9,0.3-3.8,0.5-5.7,0.8
				C1384,1454.9,1383.7,1457.1,1383.4,1459.4z M1335.3,1436.3c0.9,2,1.9,3.9,2.8,5.8c5.6-0.1,11.3-0.4,16.9-0.7
				c-3.8-7-7.2-14.3-10.3-21.7C1341.4,1425.2,1338.2,1430.7,1335.3,1436.3z M1247.1,1434.2c22.9,4.6,46.3,7.2,69.7,7.9
				c1-2.2,2-4.3,3-6.5c-7.5-17.8-12-36.4-13.3-55c-26.6,12.6-49.5,27-59,52.3C1247.4,1433.4,1247.3,1433.8,1247.1,1434.2z
				 M1354.5,1406.5c4.3,11.2,9.2,22,15,32.2c-1.3-9.5-4.6-18.4-9.9-25.8C1358.1,1410.6,1356.3,1408.5,1354.5,1406.5z M1360.7,1392.8
				c3.7,3.6,7.2,7.6,10.4,12c7.1,9.9,11.3,21.5,12.7,33.8c5.4-0.7,10.8-1.5,16.1-2.5c15.2-26.1,25.9-57.1,24-91.5
				c-0.8-13.9-4.1-26.2-9.5-35.9c-7.2,13.3-17.4,23.6-29.3,32.3C1379.5,1359.2,1370.4,1376.2,1360.7,1392.8z M2451,1438.2
				C2451,1438.2,2451,1438.2,2451,1438.2c18,0.6,38.5-3.9,56.2-12.3c35.9-17.2,64.5-44.5,81.3-75.9c-2.3,0.3-4.7,0.6-7,0.9
				c-4,0.5-8.1,1.1-12.1,1.6c-1.9,0.3-3.9,0.5-5.8,0.8c1.9,20.2-8.4,42.3-27.9,55.7c-28.9,19.9-65.1,17.7-84.2,14.6
				c-4.4-0.7-8.8-1.6-13.2-2.7C2440.7,1426.9,2445.1,1432.8,2451,1438.2z M2401.3,1407.1c1.2,4.2,3.1,8.1,5.6,11.7
				c6,8.2,14.2,13.1,22.7,15.9c-3.7-5.9-6.2-12.1-7.1-18.5C2415.2,1413.6,2408.1,1410.6,2401.3,1407.1z M1429.9,1308.4
				c4.5,10.3,7.3,22.3,8,35.4c1.6,29.6-5.2,59.4-20.3,88.8c11.9-2.6,23.6-5.7,35.2-9.4c1.4-6.5,2.8-13.2,4.1-19.9
				c4.1-20.5,8.4-41.7,15.8-61.7c3.3-8.9,7.5-17.6,12.6-25.8C1467,1312.6,1448.5,1310.2,1429.9,1308.4z M1222.9,1428.6
				c3.5,0.9,6.9,1.8,10.4,2.6c0.3-1.1,0.7-2.1,1.1-3.2c9.1-24.3,28.1-39.8,50.2-52c-8.6-1.1-17.4-1.7-25.9-1.9
				C1248.2,1394,1236.2,1412.3,1222.9,1428.6z M1052.3,1422.6c0.3,2.6,0.7,5.1,1.1,7.6c6.2-9.1,13.7-17.4,21.8-24.6
				c-1.1-3.8-2.1-7.7-2.9-11.6L1052.3,1422.6z M2622,1345.3c10.4,9.1,22.1,17.9,35,26.4c1.7,1.1,3.5,2.3,5.3,3.4
				c21.1,13.6,44.5,28.7,53.4,50.7c5.2-3.9,10.2-8.3,14.6-13c-5.1-4.8-9.4-9.9-12.7-15.1c-13.7-21.6-17.7-47.1-11.3-72.3
				c-1-0.4-2-0.7-3.1-1C2678,1334.9,2650.2,1340.8,2622,1345.3C2622,1345.3,2622,1345.3,2622,1345.3z M2749.8,1410.5
				c15.8,10.6,37,17.3,59.1,14.3c2.9-0.4,5.8-1,8.7-1.7c2.3-2,4.6-4,6.8-6c-3.6-0.8-7.2-1.8-10.6-3c-15.6-5.6-27.5-15-34.3-27.2
				c-4.9-8.8-6.3-19.4-4.2-29.7c0-0.2-0.1-0.4-0.1-0.6c-2.1-13.3,3.2-28.3,13.6-38.3c1-1,2-1.9,3.1-2.8c-19.1,1.4-39.3-1.2-58.3-7.2
				c-2.8,1.8-5.6,3.6-8.5,5.3c-0.6,1.4-1.2,2.8-1.8,4.2c17.3,9.4,31.5,24.2,36.1,40.2C2764.5,1375.2,2761.2,1393.4,2749.8,1410.5z
				 M1196.2,1420.5c4.1,1.4,8.1,2.7,12.2,4c12.7-14.9,24.4-31.8,34.7-50.5c-0.6,0-1.2,0-1.7,0c-7.2,0.1-14.7,0.2-22.2,0.4
				C1213,1391,1205.3,1406.4,1196.2,1420.5z M1320.9,1384.5c1.2,11.9,3.8,23.6,7.7,35c3.2-5.6,6.5-11.1,9.8-16.6
				c-1.4-4-2.7-8.1-3.9-12.2C1330.1,1388.4,1325.6,1386.3,1320.9,1384.5z M1500.4,1318.6c-6,8.7-10.9,18.2-14.5,27.8
				c-7,19.1-11.2,39.7-15.2,59.7c-0.8,4-1.6,7.9-2.4,11.9c2.8-1,5.7-2.1,8.5-3.2c3.9-1.5,7.8-3.1,11.7-4.8c0.6-1.4,1.3-2.9,1.9-4.3
				c11.7-26.6,23.7-53.9,38.1-79.9C1519.1,1322.7,1509.5,1320.4,1500.4,1318.6z M1129,1389.5c17.2,10.4,34.5,18.5,50.3,24.8
				c4.8-12,8.1-24.5,9.7-37.3c0-0.2,0.1-0.5,0.1-0.7C1168.8,1378.3,1148.3,1382.2,1129,1389.5z M2436.5,1405.9
				c5.6,1.6,11.4,2.9,17.2,3.8c28.9,4.7,55.8,0.2,74-12.3c13.5-9.3,23.4-26.1,22.2-42.2c-28.1,4.3-58.3,10.6-85.3,23.1
				C2452.7,1383.8,2439.1,1392.8,2436.5,1405.9z M2790.9,1378.5c0.2,0.5,0.5,1,0.8,1.5c8.4,15,26.4,22.9,44.7,24.8
				c1-1.3,2.1-2.6,3.1-4c-2.5-6.2-5.3-12.5-8.2-18.8c-5.4,0.4-10.9,0.7-16.4,0.7c-7.8,0-15.9-0.4-23.3-3.9
				C2791.4,1378.8,2791.2,1378.6,2790.9,1378.5z M2719.1,1331.5c-4.5,20.5-1,41.1,10.2,58.7c2.5,3.9,5.8,7.8,9.6,11.5
				c7.7-12,11.3-25.6,7.1-39.9C2742.7,1350.3,2732.1,1339.2,2719.1,1331.5z M2400.1,1390.3c7.3,4.3,15.1,8.1,23.1,11.2
				c2.8-11.1,11.6-24.8,35.5-35.8c27.9-12.9,58.5-19.4,87.1-23.9c-0.2-0.4-0.5-0.9-0.8-1.3c-3.3-5.4-7.9-9.7-13.3-13.5
				c-21.3,0.6-43.2,1.3-63.7,5.9c-25.1,5.6-45.3,16.9-57.1,31.9C2404.7,1372.5,2401.1,1381.5,2400.1,1390.3z M1541.7,1330.7
				c-12.8,22.8-23.7,46.8-34.1,70.5c25.1-12.3,49-27.3,71.2-44.5C1569.1,1345.1,1556,1336.8,1541.7,1330.7z M2881.1,1371.3
				c-1.2,10.7-4.6,20.7-9.9,29.6c14-4.6,26.7-12.5,36.6-22.5c-1.4-1.8-2.8-3.7-4.1-5.6c-2-2.9-3.9-5.8-5.6-8.8
				C2892.7,1366.8,2887,1369.2,2881.1,1371.3z M1050.3,1386.2c-0.1,4.9,0,9.8,0.2,14.6l19.1-27.2c0-0.7-0.1-1.4-0.1-2.1
				C1062.5,1376.2,1056.2,1381.1,1050.3,1386.2z M2926.4,1378.2c12.3,12.1,28.9,21.5,46,18.2c27.8-5.4,37.1-39.5,39.7-54
				c0.4-2.2,0.8-4.3,1-6.6c-22.8,3-47.1-1.1-69.4-6.7c-0.1,6-0.9,11.9-2.3,17.8C2938.7,1358.2,2933.5,1368.8,2926.4,1378.2z
				 M1084,1377.5c0.6,6.3,1.7,12.5,3.2,18.5c4.4-3.2,8.9-6.1,13.5-8.7c-1.5-1.1-3-2.2-4.5-3.4c-3.7-2.8-7.2-5.6-10.7-8.6
				L1084,1377.5z M2865.1,1376.3c-0.5,3.9-1.5,7.8-2.8,11.6c1.7-3.8,3-7.8,3.9-11.9C2865.8,1376.1,2865.4,1376.2,2865.1,1376.3z
				 M2846,1380.3c0.8,1.7,1.5,3.4,2.3,5.2c0.8-1.9,1.4-3.9,1.9-5.9C2848.8,1379.8,2847.4,1380.1,2846,1380.3z M1597.7,1359.5
				c4.5,7.8,7.5,16.1,9.3,24.7c9.7-15.8,18.2-32.4,25.6-49.5c-0.5-1.9-1.1-3.7-1.7-5.5C1620.4,1339.9,1609.3,1350,1597.7,1359.5z
				 M1346.3,1381.5c1.2,0.7,2.3,1.5,3.5,2.3c5.9-10.2,11.4-20.3,15.9-30.6c-7.7,4.2-15.7,8-23.8,11.6
				C1343.3,1370.4,1344.7,1376,1346.3,1381.5z M2333.8,1295.8c1.1,9.1,3.2,18.2,6.5,26.9c8.7,23,25.5,43.7,47,59.2
				c2.1-9.1,6.3-18,12.5-25.9c17.6-22.4,45-32.4,65-36.9c13.5-3,27.2-4.5,40.9-5.3c-2.4-1-4.9-2-7.4-3c-9.1-3.6-18.3-7.2-26.8-11.8
				c-3.1,0.1-6.3,0.1-9.5,0.1C2420.6,1299.2,2378.5,1298.1,2333.8,1295.8z M1093.4,1364c6.9,5.9,14,11.3,21.3,16.3
				c11.1-4.9,22.6-8.7,34.3-11.5c-18.4-1-36.5-3.1-54.5-6.3L1093.4,1364z M1203.3,1375.1c-0.1,0.7-0.1,1.4-0.2,2
				c0.3-0.7,0.6-1.4,0.9-2.1C1203.7,1375.1,1203.5,1375.1,1203.3,1375.1z M1326.5,1371.6c1,0.4,2,0.8,3,1.2
				c-0.2-0.7-0.4-1.5-0.6-2.3c-0.2,0.1-0.3,0.1-0.5,0.2C1327.8,1371.1,1327.1,1371.4,1326.5,1371.6z M873.9,1349.6
				c2.6,7,5.4,13.9,8.5,20.6c0.2-6,0.8-12.1,1.8-18.1c0.9-5.6,2-11.1,3.5-16.5C882.7,1340.1,878.2,1344.7,873.9,1349.6z
				 M2789.8,1357.2c1.3,4.1,4,7.1,8,9c4.5,2.2,10.2,2.6,17.2,2.5c3.4,0,6.8-0.1,10.1-0.3c-5.1-10.8-10.3-22-14.7-33.3
				c-6.9,2.1-13,7-17.1,14.2C2791.7,1351.9,2790.6,1354.5,2789.8,1357.2z M1052.5,1352.7c-0.6,5-1,9.9-1.3,14.8
				c4.8-3.7,9.8-7.2,14.8-10.4c-0.3-0.3-0.6-0.7-1-1C1060.8,1355,1056.6,1353.9,1052.5,1352.7z M2910.3,1357.2
				c1.6,2.6,3.2,5.2,5,7.7c0.6,0.8,1.1,1.6,1.7,2.4c4.9-7.1,8.6-15,10.7-23.2C2922.4,1348.9,2916.6,1353.3,2910.3,1357.2z
				 M2825.3,1334.8c4.1,9.8,8.6,19.6,13.1,29.2c0.5,1,1,2,1.4,3.1c3.9-0.5,7.8-1.2,11.6-1.9c0,0,0-0.1,0-0.1
				C2850.2,1352,2839.8,1338.3,2825.3,1334.8z M1265.7,1360.4c13.4,0.7,27,2.1,40.2,5.1c0.1,0,0.2-0.1,0.3-0.1
				c0-1.5,0.1-3.1,0.2-4.6c0.2-3.6,0.5-7.4,1.1-11.4c-13.7,4.3-27.6,7.8-41.6,10.8C1265.8,1360.2,1265.8,1360.3,1265.7,1360.4z
				 M2819.7,1320c11.2,0.4,22.1,5.1,30.7,13.4c8,7.7,13.3,18,14.8,28.4c0.8-0.2,1.6-0.5,2.5-0.7c-0.3-17.3-6.4-33.9-15.6-50.3
				c0,0,0,0,0,0c-12.9,0-24.1,1.8-33.6,5.4c0.2,0.7,0.4,1.4,0.7,2.1C2819.3,1318.8,2819.5,1319.4,2819.7,1320z M1322.4,1344.4
				c-1,5.1-1.6,10-1.9,14.5c0.8-0.3,1.5-0.7,2.3-1c1-0.4,1.9-0.9,2.9-1.3c-0.9-4.2-1.8-8.3-2.6-12.5
				C1322.9,1344.3,1322.7,1344.3,1322.4,1344.4z M2868.2,1311.6c7.1,14.3,12.1,29.1,13.2,44.6c3.5-1.4,6.9-2.9,10.1-4.6
				c-5.9-12.5-9.8-25.6-11.7-38.6C2875.9,1312.5,2872,1312,2868.2,1311.6z M1108.6,1350.5c26.8,4,54.1,5.5,81.2,4.6
				c-0.4-9.7-1.8-19.6-4.4-29.2c-7.2,1.7-14.4,3.6-21.5,5.6C1143.3,1337,1125,1343.4,1108.6,1350.5z M1199.1,1322.7
				c2.8,10.4,4.3,21.1,4.8,31.6c2.5-0.2,5-0.4,7.5-0.6c1-3.3,1.9-6.6,2.8-10c2.2-8.7,3.9-17.1,5-25.2
				C1212.4,1319.8,1205.7,1321.2,1199.1,1322.7z M1233.6,1315.9c-1.1,10-3.1,20.5-5.8,31.3c-0.4,1.7-0.9,3.3-1.3,5
				c10.1-1.2,20.1-2.7,30-4.6c5.1-11.2,9.7-22.9,13.9-35.1c-2.7-0.2-5.3-0.5-7.9-1C1252.7,1312.8,1243.1,1314.2,1233.6,1315.9z
				 M1336.5,1339.2c0.7,3.9,1.5,7.8,2.3,11.7c12.3-5.6,24-11.5,34.3-18.4c1-3.6,1.8-7.3,2.4-11
				C1363.1,1328,1350.1,1333.9,1336.5,1339.2z M1548.8,1318.5c15.5,6.8,29.9,16.1,40.9,29.5c12.4-10.3,24.2-21.3,35.3-32.9
				c-9.3-18.5-23.1-31.9-39.1-37.4c-2-0.7-4-1.2-6-1.7c-8.8,9.9-17.2,20.8-24.9,32.7C1552.9,1312,1550.8,1315.2,1548.8,1318.5z
				 M1084.5,1346.1c0.1,0,0.2,0,0.3,0.1c2-1.1,4.1-2.1,6.1-3.1l21.9-31.2c5.6-8,11.6-16.3,17.9-24.7c-4.9-2.6-9.7-6.1-14.2-10.5
				C1099.1,1297.5,1088,1321.4,1084.5,1346.1z M2894.5,1315.9c1.8,9.7,4.9,19.4,9.3,28.9c5.4-3.5,10.5-7.3,15-11.4
				c3-2.7,5.8-5.6,8.4-8.7c-3.8-1.1-7.6-2.2-11.2-3.2C2908.6,1319.3,2901.4,1317.5,2894.5,1315.9z M1285.4,1311.7
				c-3.7,11.1-7.8,21.9-12.3,32.4c12.6-2.9,25.1-6.4,37.4-10.4c1.7-6.6,4.1-13.4,7.3-19.9c-0.4-2.5-0.8-4.9-1.2-7.4
				c-5.7,0.3-11.3,0.7-17,1.2C1295,1309.5,1290.2,1310.8,1285.4,1311.7z M1056.6,1323.9c4.5,6.4,9.3,12.4,14.4,18.1
				c3.3-21,11.5-41.3,23.9-59.8c-10.1,3.9-20.5,6.3-30.9,7c-0.8,3.3-1.6,6.6-2.4,10C1059.7,1307.7,1058,1315.9,1056.6,1323.9z
				 M2551.9,1326.3c1.8,2.1,3.5,4.3,5,6.8c1.3,2.1,2.4,4.3,3.4,6.6c2.5-0.3,4.9-0.7,7.3-1c4-0.5,8.1-1.1,12.1-1.6
				c4.1-0.5,8.3-1.1,12.5-1.6c-3.4-3.8-6.6-7.7-9.6-11.6c-6.1,0.8-12.4,1.4-19,1.9C2559.6,1325.9,2555.7,1326.1,2551.9,1326.3z
				 M940,1300.3c24.7,7.9,46.8,15.6,66.5,22.5c11.1,3.9,21.5,7.5,30.9,10.7c1.1,0.4,2.2,0.7,3.3,1.1c0.4-2.4,0.8-4.9,1.2-7.4
				c-3.3-5-6.4-10.1-9.2-15.3c-5.6-10.2-10.2-20.9-13.9-32c-3.1-2.1-6.1-4.6-9-7.5C983.9,1281,960.8,1289.8,940,1300.3z
				 M859.6,1291.9c2.1,14.6,5.2,28.8,9.3,42.5c4.1-4.3,8.4-8.4,13-12.4c4.8-4.2,9.8-8.1,15-11.8c1.1-2.4,2.3-4.8,3.6-7.2
				C887.5,1299.2,873.8,1295.5,859.6,1291.9z M2615.7,1316.6c-1.2,5.4-2.7,10.8-4.5,16.2c1.6-0.2,3.3-0.5,4.9-0.7
				c19.8-15.8,44.3-24.3,69.7-24.3c0.3,0,0.5,0,0.8,0c5.1,0,10.4,0.7,15.5,1.9c4.2-1.9,8.4-3.9,12.4-6.1c0.4-0.7,0.7-1.4,1.1-2.1
				c-1.8-0.8-3.6-1.7-5.3-2.5c-11.8-5.9-22.3-13.1-31.2-21.3c-3.5,1.3-7,2.4-10.6,3.3c-3.3,4.6-7.2,9-11.7,13.1
				C2645.9,1303.8,2632.3,1311.3,2615.7,1316.6z M1144.6,1292c-6.9,9.1-13.7,18.4-20.4,27.9l-8.7,12.5c15.8-6.1,31.1-10.8,44.8-14.5
				c6.9-1.9,13.8-3.7,20.8-5.4c-3.2-8-7.3-15.6-12.4-22.6c-3.9,1.4-8,2.3-12.4,2.7C1152.3,1292.9,1148.4,1292.7,1144.6,1292z
				 M1332.4,1316.1c0.2,1.3,0.4,2.6,0.6,3.8c0.3,1.7,0.6,3.5,0.9,5.2c14.8-5.9,28.9-12.6,42.1-19.9c-12.1-0.3-24.1-0.2-36.2,0.1
				C1337,1308.7,1334.5,1312.4,1332.4,1316.1z M2950,1316.3c21.1,5.1,43.7,8.6,64.1,5.3c0-9.5-1.3-18.8-4.4-26.9
				c-18.7-3.6-35.6-10.5-46.2-25.2c-0.4-0.6-0.8-1.2-1.2-1.7C2962.8,1284.1,2958.5,1300.9,2950,1316.3z M2598.2,1321.2
				c0.5,0.6,0.9,1.1,1.4,1.7c0.2-0.7,0.4-1.4,0.6-2.1C2599.6,1320.9,2598.9,1321,2598.2,1321.2z M1390.7,1313.1
				c-0.1,1.8-0.3,3.5-0.5,5.2c2.9-3,5.6-6.3,8-9.7C1395.7,1310.1,1393.2,1311.6,1390.7,1313.1z M3025.1,1297
				c1.8,6.7,2.7,13.9,2.9,21.1c4.6-1.6,8.9-3.7,13.1-6.3c5.3-3.3,9.9-7.4,13.7-12.2c-4.8-0.3-9.8-0.7-15.1-1.1
				C3034.8,1298,3029.9,1297.5,3025.1,1297z M1509.9,1306.3c8.5,1.9,17.1,4.2,25.7,7.1c2.5-4.2,5.1-8.3,7.7-12.3
				c5.9-9.1,12.3-17.7,19-25.9c-0.2,0-0.4,0.1-0.7,0.1c-14.4,15.7-31.5,25.8-50.6,29.8C1510.6,1305.5,1510.3,1305.9,1509.9,1306.3z
				 M2499.9,1296.6c1.2,0.5,2.4,0.9,3.6,1.4c11.1,4.4,22.3,8.8,32.1,14.9c8.9-0.3,18-0.5,26.9-1.1c3.7-0.2,7.3-0.5,10.8-0.9
				c-2.3-3.5-4.4-7.1-6.3-10.7c-3.9-7.1-7.1-14.4-9.6-21.8c-3.1-0.6-6.3-1.3-9.4-2c-3.6-0.8-7.2-1.6-10.8-2.4
				c-2.7,4.1-6,7.7-9.9,10.8C2519.2,1290.9,2509.9,1294.5,2499.9,1296.6z M2892.7,1301.2c8.6,1.8,17.7,4,27.2,6.8
				c2.5,0.7,5.1,1.5,7.7,2.2c-3.8-15.3-12.5-29.7-25-40.6c-2.2,0-4.4-0.1-6.6-0.2c-0.2,0.7-0.4,1.4-0.6,2.2
				C2893.1,1281.2,2892.2,1291.1,2892.7,1301.2z M1181.1,1283.2c5.7,8.1,10.2,16.9,13.7,26.1c8.5-1.9,17.1-3.7,25.7-5.3
				c1.2-22.1-2.2-41.7-10.1-58.7c-0.6-1.3-1.2-2.5-1.9-3.8C1203,1258.1,1193.9,1273.7,1181.1,1283.2z M2573.4,1281.3
				c1.7,4.1,3.7,8.2,5.8,12.1c2.8,5.2,6,10.3,9.5,15.3c5.2-0.9,10.1-1.9,14.8-3.2c0.5-3.5,0.9-6.9,1.1-10.4c0.2-3.3,0.3-6.5,0.2-9.8
				C2594.4,1284.5,2583.8,1283.1,2573.4,1281.3z M1036.4,1287.1c2.5,6.2,5.3,12.2,8.5,18c0.3,0.5,0.5,0.9,0.8,1.4
				c0.7-3.4,1.4-6.9,2.2-10.4c0.5-2.4,1.1-4.7,1.6-7C1045.1,1288.8,1040.7,1288.1,1036.4,1287.1z M1590.8,1264.6
				c17.9,6.2,33.4,20.3,44.3,39.6c4.8-5.4,9.5-11,14.1-16.6c5.8-20.8,9.9-42.1,12.2-63.8c0.2-1.6,0.3-3.1,0.5-4.7
				C1636.9,1227.6,1612.7,1243.1,1590.8,1264.6z M2921.7,1269.1c8.8,10.4,15.2,22.4,18.8,35.1c5.8-12.3,8.5-25.5,7.7-38.1
				c-2.7,0.3-5.5,0.6-8.4,1.1C2934.2,1268,2928.1,1268.7,2921.7,1269.1z M2747.9,1297.8c17.4,4.2,35.3,5.2,52,2.8
				c0.2,0,0.3-0.1,0.5-0.1c-2.6-16.6-2.2-33.5,1.4-48.5c-6.5,1.8-12.8,4.1-19,6.9c-1.3,0.6-2.7,1.2-4,1.9
				C2771.6,1274.1,2761.2,1286.7,2747.9,1297.8z M1234.7,1298.3c0,1.1,0,2.1-0.1,3.2c1.1-0.2,2.2-0.4,3.3-0.5
				C1236.8,1300.1,1235.7,1299.2,1234.7,1298.3z M2618.9,1286.1c0,3.3,0,6.6-0.3,9.9c-0.1,1.6-0.2,3.2-0.4,4.9
				c10.8-4.1,20-9.4,27.5-15.9C2636.8,1286,2627.9,1286.3,2618.9,1286.1z M2860.1,1296.8c5.9,0.3,12.1,0.9,18.5,1.9
				c-0.2-8.6,0.5-17.1,2.2-25.5c-6.5,6.5-14.5,13.1-23.5,19C2858.2,1293.8,2859.2,1295.3,2860.1,1296.8z M2815.3,1256.3
				c-3,13.1-3.2,27.2-1.2,41c8-2.4,16-5.8,23.4-9.7c-4.7-6.9-9.7-13.9-14.8-20.9C2820.3,1263.3,2817.8,1259.8,2815.3,1256.3z
				 M1251.9,1217.7c-8.9,9.5-15.6,21-18.3,32.4c-2,8.7-2.7,21.4,5.8,32.8c5.4,7.3,14,12.3,23.6,14.4c4.2-0.5,8.4-1,12.6-1.5
				c7-23.1,12.6-46.9,17.6-70.7C1279.7,1221.3,1266,1218.7,1251.9,1217.7z M1421.2,1293.6c10.5,0.9,21.1,1.9,31.6,3.2
				c-6.9-3.5-13.6-8-19.7-13.2c-2.3,1.9-4.7,3.8-7,5.6c-1.7,1.3-3.4,2.6-5.1,3.9C1421,1293.3,1421.1,1293.4,1421.2,1293.6z
				 M1306.8,1229c-4.6,21.8-9.7,43.7-16,65.2c1.8-0.2,3.6-0.3,5.4-0.5c0.2-0.1,0.4-0.2,0.6-0.3c5.9-2.9,11.3-6.8,16.3-11.7
				c-2.2-17-4.1-34.6-5.1-52.4C1307.6,1229.3,1307.2,1229.2,1306.8,1229z M925.7,1290.1c-0.9,1.1-1.8,2.3-2.6,3.4
				c0.8-0.4,1.5-0.8,2.3-1.2C925.5,1291.6,925.6,1290.9,925.7,1290.1z M1450.2,1279c14.9,10,32.4,15.4,49.8,13.6
				c1.3-0.1,2.6-0.3,3.9-0.5c4.2-4.4,8.7-8.4,13.4-12c0,0,0,0-0.1,0C1496.4,1283.5,1473.4,1283,1450.2,1279z M1390.2,1291.7
				c2.6,0.1,5.1,0.2,7.7,0.3c0.2-0.2,0.5-0.3,0.7-0.5c-0.9-0.5-1.8-1-2.8-1.5c-2.1-1-4.2-1.8-6.3-2.4
				C1389.8,1289,1390,1290.4,1390.2,1291.7z M1327.9,1286.5c0.2,1.8,0.5,3.5,0.7,5.2c1.7-0.1,3.3-0.1,5-0.2
				c10.5-10.3,24-16.7,37.6-18.6c-3.2-8.6-7.6-16.9-13.1-24.7c-2.8-1.1-5.5-2.2-8.2-3.3c-0.1,0.2-0.1,0.4-0.2,0.5
				C1345,1261.4,1337.4,1275.4,1327.9,1286.5z M1359.9,1291.1c5.4,0,10.7,0.1,16.1,0.2c-0.3-1.6-0.5-3.2-0.9-4.8
				c-5.7,0.5-11.3,2.2-16.5,4.6C1359,1291.1,1359.5,1291.1,1359.9,1291.1z M857.8,1276.8c17.7,4.4,34.4,9,50.2,13.7
				c6.5-9.7,14.2-18.4,22.9-26c7.6-31.8,19.5-62.6,35-91.5c-1.6-7-3-13.7-4.2-19.8c-8.5,1.1-17.4-1.3-25.3-7
				c-12.2-8.9-19.8-24-19.2-38.4c0.8-20.5,13.5-40.8,36.8-58.8c3.1-2.4,6.3-4.7,9.6-7c8.8-21.7,22.6-40.4,40.2-54.4
				c2.8-2.2,5.7-4.3,8.7-6.3c4.3-20.3,9.6-40.6,17.3-60c1.6-4.1,3.5-8.2,5.4-12.2c-11,7.4-21.6,15.4-31.9,24
				C926.3,997.8,874,1092,859.9,1191.6C855.8,1220.9,855.1,1249.5,857.8,1276.8z M2693.2,1271.4c6.9,5.6,14.7,10.7,23.3,15
				c2.2,1.1,4.3,2.1,6.5,3.1c11.2-15.6,26.6-29,45-38.9c5.9-12.2,8.8-25,8.2-37.4c-1.1-20.3-11.7-37.8-29.1-48.3
				c-5.9-3.5-12.7-6.1-19.8-7.7c11.3,13.3,17.3,29,16.9,44.7c-0.5,18.5-9.1,36.2-24.8,51.2C2711.9,1260.1,2703,1266.4,2693.2,1271.4
				z M3019.3,1282.1c7,1,14.2,1.7,21.4,2.3c8,0.6,15.2,1.2,21.9,1.6c1.5-3.6,2.6-7.4,3.4-11.4c3.1-16-0.5-32.3-9.7-44.9
				c-18.8-25.6-59-37.3-93.6-27.3c-0.8,0.2-1.6,0.5-2.4,0.7c0.9,4.3,1.5,8.1,1.9,11.3c0.3,2.5,0.6,5,0.9,7.5
				c1.2,10.3,2.5,20.9,6.5,30.3c7.5,0.9,15.2,2.9,23.7,6.4C3005.5,1263.5,3013.8,1271.8,3019.3,1282.1z M2333.1,1281.8
				c41.4,2.1,80.6,3.3,119,3.5c-2.3-2.3-4.4-4.8-6.2-7.4c-8.2-11.8-10.2-26.6-6.7-40c-10.1-6.2-19.6-13.3-28.1-21.4
				c-10.4-10-18.5-21.9-23.5-34.7c-5.3,3.5-10.3,7.4-15,11.7C2347.2,1216.6,2333.3,1249.1,2333.1,1281.8z M2451.9,1244.9
				c-1.3,8.6,0.3,17.5,5.5,24.9c4.4,6.3,10.5,11.2,17.6,15.3c17-0.6,32.5-2.8,43.6-11.5c1.3-1,2.5-2.1,3.6-3.3
				C2498.3,1264.2,2473.9,1256.4,2451.9,1244.9z M943.5,1272.2c-0.9,4-1.8,8.1-2.5,12.2c19.2-9.2,39.2-16.7,59.1-23.5
				c-3.3-4.7-6.5-9.9-9.5-15.8C973.5,1252.3,957.6,1260.7,943.5,1272.2z M1385.9,1272.8c5.6,0.7,11.1,2.2,16.1,4.7
				c2.5,1.2,4.8,2.6,7.1,4.2c0.7-4.4,1-8.9,0.9-13.4c-10.3-3.5-20.4-7.4-30.5-11.4C1382,1262.1,1384.2,1267.4,1385.9,1272.8z
				 M2827.5,1249.2c2.2,3.1,4.4,6.2,6.7,9.3c5.2,7.3,10.5,14.6,15.5,22c7.1-4.6,13.4-9.7,18.8-14.7c-13.1-2.9-26.2-7.6-38.3-14.9
				C2829.2,1250.4,2828.3,1249.8,2827.5,1249.2z M1156.8,1276.7c-0.5,0.6-1,1.2-1.5,1.9c1.1-0.1,2.1-0.2,3.1-0.4
				C1157.9,1277.7,1157.3,1277.2,1156.8,1276.7z M2983.4,1269.7c4,2.9,8.7,5.2,13.8,7.1c-2.7-2.1-5.7-3.9-9.1-5.3
				C2986.5,1270.9,2984.9,1270.3,2983.4,1269.7z M1125.9,1266.4c4,4,8.5,7.3,13.5,9.5c2-2.5,4.1-5.1,6.2-7.6c-1-0.6-1.9-1.2-2.9-1.7
				c-3.7-2.1-7.5-3.8-11.3-5.3c-0.6,0.5-1.1,1-1.7,1.6C1128.4,1264,1127.1,1265.2,1125.9,1266.4z M1030.6,1270.6
				c1.5,0.7,3,1.3,4.6,1.8c5.9,1.7,12,2.7,18.1,3c1.8-5.8,3.7-11.4,5.7-16.7c-10,2-19.9,4.6-29.7,7.5
				C1029.8,1267.6,1030.2,1269.1,1030.6,1270.6z M1075.2,1256.1c-2.5,5.8-4.9,12-7,18.6c12.4-1.6,24.8-5.9,36.3-12.7
				c-1.5-2.2-2.9-4.5-4.3-7C1092,1254.7,1083.6,1255.1,1075.2,1256.1z M1165.9,1266.1c2.2,2,4.3,4,6.3,6.1
				c10.5-7.6,18.1-20.8,22.9-34.7C1184.9,1246,1175.2,1255.7,1165.9,1266.1z M2617.9,1272.1c14.2,0.4,28.3-0.5,41.9-3.5
				c1.5-2.5,2.9-5,4-7.6c-16.1-21.4-23.1-46.7-18.3-71.2c1.2-6.4,3.2-12.2,5.9-17.5c-0.5-0.6-0.9-1.3-1.4-1.9
				c-6.9-9-15.3-17.5-24.8-25.3c-20.5,7.9-38.7,22.8-49.5,41.6c6.9,6.9,13.2,14.6,18.7,22.8
				C2607.3,1228.7,2615.3,1250.3,2617.9,1272.1z M2568.1,1266.1c11.8,2.2,23.7,4.1,35.6,5.1c-3.6-26.4-15.9-51.4-34.3-71.1
				C2562.2,1220.2,2561.8,1243.4,2568.1,1266.1z M1453.2,1265.3c40.9,7,84.3,2.7,113.3-20.2c11-18.8,18.1-41.3,20.6-64.1
				c-19.9,12.2-42,20.5-64.6,24c-8.9,1.4-17.7,2.1-26.4,2.4c-0.6,1.2-1.3,2.4-1.9,3.6C1483.6,1230.5,1469.8,1248.6,1453.2,1265.3z
				 M1322.3,1234.3c0.7,10.8,1.7,21.5,3,32c4.5-7.4,8.2-15.7,10.9-24.8c0.2-0.6,0.3-1.2,0.5-1.8
				C1331.9,1237.9,1327.1,1236.1,1322.3,1234.3z M2543.1,1260.9c2.6,0.6,5.2,1.2,7.8,1.7c0.7,0.1,1.4,0.3,2.1,0.4
				c-5.7-25.5-3.9-51.2,5.7-73.4c-12.3-10.6-26.6-19-42.3-24.5c-37.4-13.1-81.6-9-116.6,9.4c4.2,11.7,11.4,22.7,20.9,31.8
				c7.2,6.9,15.3,13,23.9,18.4c3.4-5.8,8.1-11,13.9-15.1c21.9-15.6,55.8-12.7,73.9,6.3c8.8,9.2,13.3,22.1,12.4,35.3
				C2544.5,1254.5,2544,1257.8,2543.1,1260.9z M1429.6,1259.9c2.3,0.7,4.6,1.3,7,1.9c17.8-16.6,32.6-34.9,43.8-54.5
				c-23.7-1-46.7-5.7-68.6-12.8c-1,7.5-1.2,15-0.3,22.5c0.4,3.5,1.1,7,1.9,10.5c2.9,5.7,5.3,11.7,7.1,17.9c0.1,0.3,0.2,0.6,0.3,0.9
				C1423.2,1251.1,1426.2,1255.7,1429.6,1259.9z M1572.9,1261c0.6,0,1.2,0.1,1.8,0.1c11.8-12.4,24.4-23.4,37.6-32.4
				c16.5-11.4,33.4-19.6,50.6-24.7c0.4-7.7,0.5-15.3,0.3-22.8c-9.4-14.2-20.2-26.9-32-37.8c-6,7.1-12.5,13.7-19.5,19.7
				c2.9,23.8-1,48.2-14.9,69.4c-5.4,8.3-12,15.7-19.7,22C1575.7,1256.8,1574.3,1259,1572.9,1261z M2679.8,1258.4
				c0.8,0.9,1.6,1.8,2.4,2.7c25.5-11.7,47.3-33.3,48-59.8c0.5-17.5-9.6-34.4-25.1-46.2c-10.1,0.6-19.7,3.1-26.9,7.7
				c-3.9,2.5-7.3,5.5-10.1,9.1C2683.4,1197.4,2689.1,1230,2679.8,1258.4z M1676.2,1215.1c-0.3,3.4-0.6,6.8-0.9,10.2
				c-1.2,11.3-2.8,22.4-4.9,33.5c6.2-9.3,12.1-18.9,17.5-28.6c-0.5-1.4-1.1-2.9-1.6-4.3c-1.6-4-3.2-7.9-4.9-11.7
				C1679.6,1214.4,1677.9,1214.8,1676.2,1215.1z M2456.7,1231.7c22.5,11.9,47.9,19.9,72.7,26c0.7-2.4,1.2-4.9,1.4-7.5
				c0.7-9.3-2.4-18.3-8.5-24.6c-13.1-13.7-39.7-15.9-55.7-4.6C2462.5,1223.9,2459.2,1227.6,2456.7,1231.7z M1143.4,1251.2
				c2.1,1,4.1,2.1,6.2,3.2c1.8,1,3.5,2.1,5.2,3.2c8.9-10,18.3-19.5,28.3-28.1c0.6-0.5,1.2-1,1.7-1.5
				C1170.1,1233.7,1156.1,1241.5,1143.4,1251.2z M2902.9,1252.1c1.7,1.1,3.3,2.3,4.8,3.5c10.8-0.1,21-1.1,30-2.4
				c2.8-0.4,5.5-0.8,8.1-1c-0.9-3.3-2.1-6.6-3.6-9.7c-3.7-7.8-9.1-14.6-15.8-20.3C2916.8,1230.6,2908.7,1240.8,2902.9,1252.1z
				 M1003.7,1239.9c2.6,4.9,5.4,9.5,8.3,13.6c-1-5.2-1.8-10.5-2.4-15.8C1007.6,1238.4,1005.6,1239.1,1003.7,1239.9z M1366.9,1236.8
				C1367,1236.8,1367,1236.8,1366.9,1236.8c13.4,5.5,27.2,11.1,41,16c-0.1-0.5-0.2-0.9-0.3-1.4c-3.1-6.1-5.6-12.5-7.4-19
				c-5.6-10.3-13.4-19.5-23.1-26.5c-7.1-5.1-15.1-9-23.6-11.8c1.4,9.2,1.6,18.8,0.7,28.3c2,2,4,4,6,6.1
				C1362.5,1231.2,1364.8,1234,1366.9,1236.8z M1023.4,1232.6c0.6,6.7,1.5,13.3,2.8,19.8c12.9-3.8,26.2-7.1,39.5-9.2
				c2.7-5.5,5.6-10.7,8.7-15.5c3.1-4.8,6.3-9.2,9.7-13.2c-0.4-1.7-0.8-3.4-1.2-5.1c-3.3,1.6-6.7,3.1-10,4.6
				c-14.2,6.2-29.1,11.4-43.4,16.5C1027.4,1231.2,1025.4,1231.9,1023.4,1232.6z M2863.9,1250.3c1.5,0.4,3.1,0.8,4.6,1.2
				C2867,1251,2865.4,1250.6,2863.9,1250.3z M971.1,1193.5c-9,18.5-16.4,37.7-22.2,57.4c11.3-7.3,23.3-13.2,35.6-18.5
				c-4.6-10.6-8.8-22.8-12.7-36.4C971.6,1195.2,971.4,1194.3,971.1,1193.5z M1109,1241.7c5.8,0.6,11.6,1.7,17.2,3.2
				c12.4-12.9,20.5-28.7,23-45.3c0-0.1,0-0.3,0.1-0.4c-5.3-0.5-10.6-0.4-15.7,0.6c-12.6,2.3-23.9,8.5-34,18.5
				C1101.6,1224.5,1104.7,1233,1109,1241.7z M2660.5,1187.4c-0.5,1.6-0.9,3.3-1.2,5c-3.4,17.3,0.3,35.1,9.8,51.3
				C2672.5,1224.9,2668.9,1204.8,2660.5,1187.4z M2836.7,1233.2c17.3,0,34.1,3.2,48.9,9.6c5.1-11.3,6-22.9,5.9-37.6
				c-13.1-2.7-26.6-2.1-38.5,2.8c-11.7,4.9-20.7,12.8-27.1,22.6c1.1,1,2.2,1.9,3.4,2.8C2831.8,1233.3,2834.2,1233.2,2836.7,1233.2z
				 M2790.4,1217.1c0,8.4-1.4,16.8-3.8,25.1c5.2-1.9,10.5-3.5,15.8-4.8C2798,1230.7,2794,1224,2790.4,1217.1z M1089.2,1230.8
				c-1,1.4-2,2.9-3,4.4c-1.2,1.9-2.5,4-3.6,6c3.6-0.3,7.1-0.4,10.6-0.4C1091.8,1237.7,1090.4,1234.3,1089.2,1230.8z M1213.9,1223.7
				c3.3,4.6,6.2,9.5,8.7,14.6c2.7-7.3,6.6-14.4,11.3-21c-3.6,0.2-7.1,0.5-10.7,0.9C1220.1,1220,1217,1221.8,1213.9,1223.7z
				 M2938,1213.7c4.5,4.2,8.5,8.8,11.9,13.9c-0.2-1.4-0.3-2.7-0.5-4c-0.3-2.5-0.6-4.9-0.9-7.3c-0.3-2.3-0.7-4.9-1.3-7.8
				C2944,1210,2940.9,1211.8,2938,1213.7z M980.8,1175c4.3,17.6,9.9,36.1,16.9,52.2c3.6-1.4,7.2-2.7,10.8-4
				c-0.9-19.8,0.7-40.2,4.9-60.6c4.3-20.5,11-40.6,20-59.6C1012.9,1124.7,995.3,1149,980.8,1175z M1163,1202.1
				c-1.3,8.3-3.8,16.3-7.3,24c9.1-5.2,18.6-9.6,28.3-13C1177.5,1208.3,1170.4,1204.6,1163,1202.1z M2905.6,1209.5
				c-0.1,5-0.3,9.9-0.8,14.8c3.1-3.6,6.4-7.1,10-10.3C2911.8,1212.3,2908.7,1210.8,2905.6,1209.5z M1321.5,1219.2
				c4.2,1.5,8.4,3,12.6,4.6c-4.1-3.1-8.3-5.8-12.7-8.2C1321.4,1216.8,1321.5,1218,1321.5,1219.2z M2854,1130.3
				c-21.3,3.6-40.2,15.2-48.1,32.1c-9.1,19.4-3,41,10,57.6c8-11.1,18.7-19.5,31.7-24.9c13.6-5.6,28.7-6.8,43.4-4.3
				C2889.6,1172.5,2882.1,1145.9,2854,1130.3z M1056.2,1089.4c-23,40-34.7,85.4-33.7,128.7c0.7-0.3,1.4-0.5,2.2-0.8
				c14.1-5,28.8-10.2,42.5-16.1c4.5-2,9-4.1,13.4-6.3c-1.4-14.9-0.1-30.3,6.4-42.1c5.1-9.3,12.7-15.3,22.7-18
				c0.3-0.1,0.6-0.2,0.9-0.2c-2.3-0.6-4.6-1.3-6.9-2.1c-16.7-5.9-31.2-17.1-40.8-31.5C1060.4,1097.4,1058.2,1093.5,1056.2,1089.4z
				 M1695.7,1212.2c0.2,0.5,0.4,1,0.7,1.5c0.3-0.5,0.5-1.1,0.8-1.6C1696.7,1212.2,1696.2,1212.2,1695.7,1212.2z M1266.6,1205.2
				c10,1.4,19.8,3.5,29.5,6.2c0.3-1.7,0.7-3.3,1-5c-6.1-1.4-12.2-2.2-18.4-2.3c-3.7-0.1-7.4,0.1-11,0.4
				C1267.4,1204.7,1267,1205,1266.6,1205.2z M1321.1,1199.8c6.8,3.1,13.3,6.9,19.6,11.4c0-7-0.7-13.9-2.1-20.5
				c-5.7-0.9-11.5-1.3-17.4-1.2C1321.1,1192.9,1321,1196.4,1321.1,1199.8z M1163.6,1187.7c7.5,2.1,14.9,5.3,22,9.7
				c5.1,3.2,10,6.8,14.5,10.9c0.5-0.1,1.1-0.3,1.6-0.4c0-0.3,0.1-0.5,0.1-0.8c4.2-25.7,8.6-52.3,28.1-70.6
				c11.9-11.2,28.4-17,46.4-16.4c0.9,0,1.8,0.1,2.6,0.1c-6.9-5.4-13.7-10.8-20.4-16.1c-11.7-9.3-23.6-18.7-35.7-27.7
				c-10.1,18.2-22,35.5-35.6,51.6c-9.7,11.5-20.2,22.3-31.4,32.3C1160.2,1168.7,1162.9,1178.2,1163.6,1187.7z M1273.8,1134
				c-13.4,0-25.5,4.4-34.2,12.6c-15.1,14.2-19.5,36.3-23.2,58.4c1-0.1,2-0.3,2.9-0.4c14.4-7.4,29-12,43.9-13.7
				c1.3-0.8,2.7-1.5,4.1-2.2c11.2-5.7,23.2-9.6,35.6-11.6c2.1-10.8,4.2-21.6,6.4-32.5c-9.7-6.4-21.5-10.2-33.4-10.6
				C1275.2,1134,1274.5,1134,1273.8,1134z M2905.4,1194.4c7.4,2.5,14.5,5.9,20.9,10.2c5.5-3.9,11.4-7.3,17.6-10.1
				c-6.2-22-19.6-49.7-48-60.5c-6.2-2.3-12.6-3.8-19.1-4.5C2894.2,1145.4,2904.3,1168,2905.4,1194.4z M1349.9,1178.6
				c12.9,3.1,24.9,8.5,35.3,16c4.2,3,8.1,6.3,11.7,10c0.1-4.9,0.6-9.9,1.4-14.8c-19.1-7.1-37.2-15.9-54-25.3
				C1346.5,1168.9,1348.3,1173.7,1349.9,1178.6z M1095.8,1202.8C1095.8,1202.8,1095.8,1202.8,1095.8,1202.8
				C1095.8,1202.8,1095.8,1202.8,1095.8,1202.8C1095.8,1202.8,1095.8,1202.8,1095.8,1202.8z M1677,1176.9c4.4,7,8.6,14.2,12.4,21.8
				c4.8-0.5,9.6-0.8,14.4-0.8c30.3-69.3,36.3-142,16.4-202.5c-1.4-4.2-2.9-8.3-4.5-12.3c-0.7,2.2-1.4,4.4-2.3,6.6
				c-9.4,24.7-25.4,47.6-46.7,66.7c-0.3,10.9-2.1,21.8-5.4,32.6C1670.7,1115.9,1676,1145.5,1677,1176.9z M1414.6,1180.7
				c23.2,7.6,47.7,12.4,72.9,12.7c11.7-24.8,18.3-51.9,20-79.7c-11.2,0.2-22.7-0.2-34.6-1.1
				C1444.2,1126.4,1422.9,1152.2,1414.6,1180.7z M1521.5,1113.3c-1.5,27.6-7.6,54.7-18.5,79.8c5.8-0.4,11.6-1,17.4-1.9
				c24-3.7,47.4-13.4,67.7-27.5c0-1,0-2,0-3c-0.1-11.9-1.1-23.9-2.5-35.9c-2.5-5.1-5.3-10-8.3-14.6c-3.4-1.2-6.8-2.4-10.3-3.4
				C1552.5,1110.2,1537.4,1112.3,1521.5,1113.3z M1298.2,1192.2c0.6,0.1,1.1,0.2,1.7,0.4c0-0.3,0.1-0.5,0.1-0.8
				C1299.4,1192,1298.8,1192.1,1298.2,1192.2z M1144.9,1169.7c-8.8,7.2-18,13.9-27.4,20.1c4.4-1.7,8.9-3,13.6-3.8
				c5.9-1.1,12-1.4,18.2-0.9C1148.5,1179.8,1147,1174.6,1144.9,1169.7z M1118.9,1147.6c-1.8,0-3.7,0.3-5.6,0.8
				c-6.2,1.7-10.9,5.4-14.1,11.2c-4.2,7.6-5.5,17.7-5.1,28.1c15.3-8.7,29.8-18.8,43.4-30.1c-1.1-1.3-2.3-2.5-3.5-3.6
				C1129.3,1149.7,1124.2,1147.6,1118.9,1147.6z M2470.2,1143.5c17.4,0,34.6,2.7,50.8,8.4c16,5.6,31,14.2,44.3,25.1
				c11.1-18.1,27.8-32.7,47-41.7c-34.7-23.8-80.3-39.2-125.5-41c-37.8-1.4-63.3,5.9-78,22.3c-10.5,11.8-14.8,27.3-12.5,44
				C2418.9,1149.4,2444.6,1143.5,2470.2,1143.5z M1325.3,1136.5c22.3,14.7,48.1,29,76.1,39.6c7.8-25.9,24.8-49.6,47.9-65.8
				c-13.3-1.8-27.1-4.2-41.4-7.2c-12,16.4-28.2,27.9-46.2,32.6c-11.6,3-24.2,2.6-36.3-0.8
				C1325.5,1135.4,1325.4,1135.9,1325.3,1136.5z M1322.7,1175.4c1.5,0,3,0,4.4,0.1c2.3,0.1,4.6,0.2,6.8,0.4
				c-2.8-7-6.6-13.5-11.1-19.1c-0.6,6.2-1,12.4-1.3,18.6C1322,1175.4,1322.3,1175.4,1322.7,1175.4z M2827.6,1122.7
				c-0.2,0-0.3,0-0.5,0c-11.2,0.1-22.8,5.5-29.5,13.6c-5.5,6.6-8.2,15.1-8.3,25.9c0,1.8,0,3.6,0.1,5.3c0.9-3.7,2.2-7.4,3.9-11
				c6.9-14.7,19.9-26.5,37.1-33.7C2829.4,1122.7,2828.5,1122.7,2827.6,1122.7z M2641.3,1140.4c6.9,6.2,13.1,12.8,18.5,19.7
				c3.2-3.5,6.8-6.5,10.8-9.1c4.6-2.9,9.7-5.2,15-6.8c-8.2-3.2-17.1-5.1-26.2-5.4C2653.5,1138.8,2647.4,1139.3,2641.3,1140.4z
				 M1639.7,1132.4c7.7,7,15,14.7,21.9,23.1c-1.6-15.9-4.4-31.1-8.4-45.7C1649.4,1117.6,1645,1125.1,1639.7,1132.4z M975,1148.2
				c0.4,2.2,0.8,4.4,1.3,6.7c19.7-32.3,44.2-61.7,72.7-86.6c-3.2-14.1-3.7-29.4-1.4-45.1c-10.2,1.7-20.3,4.3-30.1,7.6
				c-5,28.2-10.5,57.2-20.3,84.6C993.4,1126.2,987,1140.5,975,1148.2z M1133,1136.7c3.6,1.6,7.1,3.9,10.4,6.8
				c1.6,1.5,3.2,3.1,4.7,4.8c25.3-23.1,46.8-50.3,63.3-80.3c-10.2-7.2-20.7-13.9-31.4-20c7.1,10.5,9.8,23.9,7.4,38.2
				c-3.3,20-15.8,37.2-32.7,45C1148,1134.4,1140.6,1136.2,1133,1136.7z M1599.3,1121.2c3.9,8.3,7,17,9.2,25.9
				c4.2-4,8.2-8.2,11.9-12.6c-5.7-4.5-11.6-8.5-17.7-12.1c-1.2-0.7-2.3-1.4-3.5-2C1599.3,1120.5,1599.3,1120.9,1599.3,1121.2z
				 M956.5,1065.1c-12.3,10.7-24.6,25.8-25.3,43.3c-0.4,9.7,5,20.4,13.5,26.5c2.9,2.1,8.3,5.1,14.5,4.5c-1.6-9.4-2.4-15.9-2.6-17.6
				C952.5,1103.4,952.4,1084.1,956.5,1065.1z M975.3,1051.2c-8,21.7-10,45.6-4.9,67.9c0.1,0.3,0.1,0.5,0.1,0.8
				c0.4,3.6,1,7.9,1.7,12.5c5.7-6,9.3-14.7,11.8-21.6c8.5-23.7,13.7-49,18.2-74C992.9,1040.8,983.9,1045.6,975.3,1051.2z
				 M1328.5,1121.1c9.9,3,20.3,3.4,29.8,1c14.1-3.7,25.8-11.9,34.7-22.5c-2.9-0.7-5.8-1.4-8.7-2.2c-3.9-1-7.7-2-11.5-3.1
				c-12.6,5-26.2,8.6-40.4,9.9C1331.1,1109.8,1329.8,1115.5,1328.5,1121.1z M1596.8,1103.2c4.4,2.1,8.8,4.5,13.1,7
				c6.6,3.9,13,8.3,19.1,13.1c7.7-10.9,13.5-22.4,17.5-34.1c-1.7-4.5-3.5-9-5.4-13.3c-13.9,9-29.1,16.6-45.1,22.4
				C1596.3,1100,1596.5,1101.6,1596.8,1103.2z M1065.4,1074.7c2.3,6.7,5.3,12.9,9.1,18.6c16.8,25.1,50.1,36.4,74.4,25.3
				c12.5-5.7,22.2-19.3,24.7-34.5c2.2-13.2-1.3-25.3-9.5-33.2c-21.9-20.8-60.8-7.6-89.6,14.6c-2,1.6-4.1,3.2-6.1,4.8
				C1067.3,1071.8,1066.3,1073.2,1065.4,1074.7z M1299.1,1102.4c1.7,1.9,3.6,3.8,5.6,5.5c3.2,2.8,6.6,5.2,10.2,7.3
				c0.7-3.5,1.5-7.1,2.3-10.6C1311.2,1104.4,1305.2,1103.7,1299.1,1102.4z M1255.6,1083.9c3.9,3.1,7.8,6.2,11.6,9.2
				c5.7,4.5,11.5,9.1,17.4,13.7c-2.6-3.5-4.8-7.1-6.6-10.9C1270.1,1092.7,1262.7,1088.6,1255.6,1083.9z M1415.9,1090.4
				c19,3.9,37.1,6.6,54.5,8.1c11.7-5.2,24.3-8.6,37.3-10.2c-0.6-12.9-2.3-25.7-5-38.5c-13.9-6.6-28.5-12-43.4-16.8
				c-4.7,5-9.7,10-15.1,15c-4.8,4.4-11.1,9.9-18.7,15.8C1423.6,1073,1420.3,1082,1415.9,1090.4z M1526.6,1087.1
				c11.9,0,23.9,1.4,35.8,4.1c-0.3-0.3-0.5-0.6-0.8-0.8c-12.8-13.1-27.4-23.7-43.1-32.5c1.6,9.7,2.7,19.5,3.2,29.3
				C1523.2,1087.1,1524.9,1087.1,1526.6,1087.1z M1288.7,1085.1c1.9,0.7,3.8,1.3,5.8,1.8c8.9,2.5,17.7,3.7,26.4,3.8
				c0.1-0.4,0.2-0.7,0.3-1.1c0.9-3.1,1.8-6.2,2.8-9.2c0.3-1.2,0.7-2.5,1-3.7c-13.5-6.4-25.3-13.6-35.5-21.5
				c-1.4,3.7-2.4,7.5-2.9,11.6C1285.9,1072.9,1286.7,1079.1,1288.7,1085.1z M1337.4,1084.3c-0.5,1.8-1,3.6-1.4,5.4
				c4.8-0.6,9.5-1.5,14.1-2.7c-4.1-1.5-8.1-3-12-4.6C1337.9,1083.1,1337.7,1083.7,1337.4,1084.3z M1514.8,1040.3
				c20.8,10.4,40.3,23.4,56.7,40.3c2.7,2.7,5.2,5.6,7.7,8.6c0.3-0.1,0.7-0.2,1-0.3c-0.7-3.9-1.4-7.9-2-11.8
				c-5-28.8-10.2-58.4-10.2-88.3c-18.5-12.6-39.5-23.1-62.6-31.3c-2.7,9-6.4,18-11,26.9C1503.5,1002.3,1510.3,1021.1,1514.8,1040.3z
				 M1392.7,1085.1c3,0.7,6,1.4,8.9,2.1c1.9-3.3,3.6-6.7,5.1-10.3C1402.3,1079.8,1397.6,1082.5,1392.7,1085.1z M1582.2,999.4
				c1,25.2,5.4,50.6,9.8,75.3c0.6,3.2,1.1,6.4,1.7,9.6c14.8-5.6,28.6-12.7,41.3-21.1c-5.1-9.7-10.9-18.9-17.3-27.4
				C1607.6,1022.4,1595.7,1010.2,1582.2,999.4z M1342.9,1069.3c9,3.7,18.8,7.1,29.2,10.3c15.5-6.6,29.3-15.3,40.7-23.6
				c1.1-6.5,1.5-13,1.1-19.2c-0.3-5.7-1.2-11.4-2.5-17.1c-12.4-3-25-5.4-37.6-6.3C1361.5,1030.1,1351,1049,1342.9,1069.3z
				 M1235.9,1050.1c11.6,10.9,23.6,20.6,36.9,27.8c-0.5-4.2-0.5-8.5-0.1-12.7c0.8-7,2.7-13.6,5.6-19.6c-12.2-11.6-21.2-24.6-27-38.9
				C1247.3,1021.4,1242.1,1036,1235.9,1050.1z M1229.5,1063.8c1.4,1.1,2.9,2.1,4.3,3.2c-1.4-1.2-2.7-2.4-4.1-3.6
				C1229.6,1063.5,1229.6,1063.7,1229.5,1063.8z M1296.4,1042.8c9.2,7.4,20.1,14.1,32.5,20.2c3.7-12.5,7.8-24.9,12.5-37.1
				c1.5-3.9,3.1-7.8,4.7-11.7c-1.7,0.3-3.3,0.6-5,0.9C1324.5,1018.6,1307,1028.5,1296.4,1042.8z M1062.2,1021.3
				c-2.2,12.1-2.5,24-1,35.1c7.7-10.3,16-20,25-29c2.2-2.2,4.5-4.4,6.8-6.6C1082.7,1020.2,1072.4,1020.4,1062.2,1021.3z
				 M1125.7,1011.5c4.8,1.1,9.5,2.4,14.2,3.8c28.4,8.8,53.9,23.4,78,40.2c0.4-0.8,0.7-1.5,1.1-2.3c-5.1-5-10.1-10-15-15.1
				c-16-16.2-32.4-32.9-51.1-45.1C1143.4,998.9,1134.3,1005,1125.7,1011.5z M1582.1,981.5c18.1,13.2,33.7,28.6,46.7,45.9
				c6.5,8.6,12.3,17.9,17.6,27.6c2.1-1.6,4.2-3.3,6.3-5c-0.1-5.2-0.7-10.5-1.6-15.6c-5.4-30.5-24.6-57.8-54.1-76.8
				c-3.7-2.4-7.5-4.6-11.4-6.7c-1.8,8.3-2.9,17.3-3.4,26.8C1582.2,979,1582.2,980.2,1582.1,981.5z M1426.5,1023.5
				c0.7,4.1,1.1,8.3,1.4,12.4c0.2,2.6,0.2,5.3,0.1,7.9c2.5-2.2,4.8-4.2,6.7-6c3.3-3.1,6.5-6.2,9.6-9.3
				C1438.4,1026.7,1432.4,1025.1,1426.5,1023.5z M1166.3,985.4c17.4,12.4,32.7,27.9,47.6,43.1c3.7,3.8,7.5,7.6,11.2,11.3
				c5.8-13.8,10.5-27.9,14.1-42.4c2.1-8.5,3.6-17.3,4.5-26.1c-0.2-5.7,0.1-11.5,0.9-17.4C1216.5,961.8,1190.3,972.3,1166.3,985.4z
				 M1589.4,937c5.2,2.6,10.3,5.5,15.2,8.7c32.7,21.2,54.1,51.7,60.2,86.1c0.4,2,0.7,3.9,0.9,5.9c15.3-15.7,27.2-33.6,34.5-53
				c2.7-7.1,4.5-14.7,5.5-22.4c-17.4-31.9-42.9-58.2-72.3-75.7c-10.2,4-19.9,10.9-27.5,20C1598.9,915.1,1593.4,925.3,1589.4,937z
				 M1111.5,1023c-4.5,3.9-9,7.9-13.2,12.1c7-3,13.9-5.3,20.6-6.8c3.4-0.7,6.7-1.3,10-1.6C1123.2,1025.2,1117.4,1024,1111.5,1023z
				 M1257.8,971.6c0.3,7.7,1.5,15.4,4,23c4.5,14.3,12.6,27.2,24.1,38.8c13.1-17,33.6-28,52.5-31.9c4.8-1,9.7-1.7,14.6-2.1
				c7.1-14.8,15.3-29.1,24.3-42.4c-5.4-6-11.4-11.8-17.8-17.2c-1.1-0.9-2.2-1.8-3.3-2.7c-33.9,1.2-66.2,5.6-96.6,13
				c-0.3,1.4-0.5,2.9-0.7,4.3C1258.7,960.1,1258.4,965.9,1257.8,971.6z M1469.4,1021.7c9.7,3.3,19.5,6.9,29,11
				c-3.3-11.4-7.4-22.7-12.4-33.6C1481.1,1006.7,1475.6,1014.2,1469.4,1021.7z M1008.5,1002c-8.8,7.7-16.4,16.8-22.5,26.9
				c6.3-3.2,12.7-6,19.2-8.5C1006.3,1014.3,1007.4,1008.2,1008.5,1002z M1422.9,1008.1c2.2,0.6,4.3,1.1,6.4,1.7
				c8.4,2.2,17,4.6,25.6,7.3c9.5-10.8,17.4-21.7,23.7-32.7c-4.4-8.1-9.2-15.9-14.6-23.4c-3.4-4.9-7.1-9.6-10.9-14.2
				c-15.8,7.2-30.8,17-44.7,28.9C1414.8,986.1,1419.6,997,1422.9,1008.1z M1025,990.1c-1.7,8.4-3.2,16.8-4.7,25.1
				c9.9-3,20-5.2,30.3-6.6c0.4-1.7,0.9-3.5,1.4-5.2c2.7-9.4,6.4-18.6,10.8-27.5C1049.5,978.6,1036.6,983.3,1025,990.1z
				 M1080.4,1006.5c9,0,18,0.6,26.9,1.8c10-8.2,20.6-15.9,31.7-23c-18.1-8.9-38.7-12.6-59-11.4c-6.2,10.5-11.1,21.6-14.5,33.2
				C1070.5,1006.7,1075.5,1006.5,1080.4,1006.5z M1384,1000.3c7.7,0.9,15.3,2.3,22.7,3.9c-2.4-6.3-5.4-12.6-8.9-18.8
				C1393.1,990.1,1388.5,995,1384,1000.3z M1386.6,968.4c-5.1,7.8-9.9,15.8-14.3,23.9c1.9-2.3,3.9-4.6,5.9-6.8
				c3.8-4.3,7.8-8.4,11.9-12.3C1389,971.5,1387.8,969.9,1386.6,968.4z M1089.6,959.5c19.7,0.3,38.8,4.8,56,13.4c2.5,1.3,5,2.6,7.4,4
				c27.6-15.8,58.3-28.4,91.4-37.4c-0.8-12.9-2.9-25.5-6.4-37c-1.1-3.7-2.5-7.7-4.1-11.7c-14.2-0.5-28.3,0.6-42,3.4
				C1150.8,902.6,1113.8,926.9,1089.6,959.5z M1508.8,943.8c1,0.3,1.9,0.7,2.9,1c20.9,7.5,39.9,16.6,56.9,27.4
				c0.7-9.8,2.1-19,4.1-27.5c-19.9-8.3-41.4-12.3-62.4-11.8C1510,936.6,1509.5,940.2,1508.8,943.8z M1060.9,893.3
				c-7.3,10.4-13.4,21.6-18.1,33.3c-5.9,14.7-10.3,30-13.9,45.6c13.3-6.2,27.8-10.3,42.9-11.9c8.7-13.4,19.4-25.8,31.9-36.9
				c24.5-21.7,54.1-36.6,85.4-43c12.3-2.5,25.1-3.8,38-3.9c-6.1-10.7-14.5-21-26-28.8C1153.2,852.6,1105.1,868.3,1060.9,893.3z
				 M1471.7,947.6c1.3,1.7,2.5,3.4,3.7,5.2c3.8,5.4,7.4,10.9,10.7,16.5c2.4-5.4,4.3-10.8,6-16.1
				C1485.5,951.1,1478.7,949.3,1471.7,947.6z M1395,956.2c1.9,2.4,3.8,4.9,5.6,7.4c10.5-8.9,21.7-16.6,33.3-23
				c-8-1.1-16.2-1.9-24.5-2.6C1404.4,943.9,1399.6,949.9,1395,956.2z M1377,936.7c3,2.8,5.8,5.6,8.5,8.5c2.1-2.8,4.2-5.5,6.3-8.2
				C1386.9,936.8,1382,936.7,1377,936.7z M1483.7,936.2c3.9,1,7.8,2.1,11.6,3.3c0.3-1.8,0.6-3.6,0.8-5.5
				C1492,934.6,1487.8,935.3,1483.7,936.2z M1652.8,882.5c3.8,2.6,7.5,5.4,11.1,8.4c16,12.9,30.1,28.2,41.9,45.1
				c-1.1-8.5-3.3-16.5-6.6-23.6c-6.3-13.5-16.2-23-28.7-27.3C1664.8,883.1,1658.9,882.2,1652.8,882.5z M1282.4,898.5
				c-7.9,11.2-14.4,23.4-18.8,36.1c23.8-5.4,48.7-9,74.5-10.7C1320.8,912.7,1301.9,904.2,1282.4,898.5z M1514,918.9
				c21.1,0,42.6,4.2,62.7,12.3c4.5-12.9,10.7-24.1,18.6-33.6c6.6-7.9,14.4-14.3,23-19.1c-21.2-10-44-15.5-66.8-15.3
				c-17.5,0.1-34.4,3.2-50.4,8.8c3.6,7.9,6.3,16.5,8,25.6c1.3,7,2,14.2,2,21.3C1512,918.9,1513,918.9,1514,918.9z M1437.3,909.8
				c7,6.3,13.6,13,19.8,19.9c6.6-2.6,13.4-4.7,20.2-6.4c6.4-1.6,13-2.8,19.6-3.5c0-15.2-3.2-29.9-9.1-42.7
				C1469.7,885.2,1452.8,896.4,1437.3,909.8z M1421.2,925c4.5,0.5,9,1,13.5,1.6c-2.5-2.5-5.1-4.9-7.8-7.3
				C1425,921.2,1423.1,923.1,1421.2,925z M1374.3,922.7c9.7,0,19.3,0.3,28.8,0.9c4.2-4.7,8.5-9.2,12.9-13.5
				c-27.7-22.3-60.2-39.5-95.2-50.4c-1,0.7-2,1.5-3,2.2c-9.2,7-18.1,15.3-26.2,24.8c24.9,7.9,48.5,20.3,69.1,36.3
				c1.9-0.1,3.8-0.1,5.8-0.1C1369.1,922.7,1371.7,922.7,1374.3,922.7z M1249.3,891.9c2.7,7.8,4.9,16,6.4,24.4
				c3.4-7.3,7.4-14.5,12-21.4C1261.6,893.6,1255.5,892.6,1249.3,891.9z M1336.2,849.9c12.7,4.5,25.2,9.8,37.2,15.9
				c19.1,9.7,37,21.4,53.1,34.6c17.2-15.1,35.5-27,54.4-35.5c-2.2-3.2-4.7-6.3-7.3-9.1c-22.6-23.8-52.9-26.8-74.4-25.2
				C1377.8,832.1,1355.8,839,1336.2,849.9z M1243.2,877.1c11.2,0.9,22.4,2.6,33.6,5.3c8-10,17.2-19.3,27.2-27.6
				c-20.1-5-40.8-8-61.7-8.6c-7-0.2-14-0.2-21,0.1C1230.3,855,1237.6,865.5,1243.2,877.1z M1157.3,834.1c-18.4,0-37.6,6.4-55.9,18.8
				c-5.2,3.5-10.2,7.4-15,11.7c7.9-3.6,16-6.9,24.2-9.9c22.1-8.2,44.4-14.2,66.7-18C1170.8,835,1164.1,834.1,1157.3,834.1z"/>
		</g>
	</g>
	<g>
		<path class="st1" d="M6685.8,1263.5l-50.9-27.9c-0.6-0.3-1.3,0.1-1.3,0.8v52c0,0.6,0.7,1.1,1.2,0.8l50.9-24
			C6686.4,1264.8,6686.4,1263.9,6685.8,1263.5z"/>
	</g>
	
		<ellipse transform="matrix(0.2047 -0.9788 0.9788 0.2047 -911.4165 1403.0468)" class="st1" cx="407.7" cy="1262.4" rx="21.4" ry="21.4"/>
</g>
</svg>
